<?xml version="1.0" encoding="utf-8"?>
<!-- Generator: Adobe Illustrator 16.2.0, SVG Export Plug-In . SVG Version: 6.00 Build 0)  -->
<!DOCTYPE svg PUBLIC "-//W3C//DTD SVG 1.1//EN" "http://www.w3.org/Graphics/SVG/1.1/DTD/svg11.dtd">
<svg version="1.1" id="Layer_1" xmlns="http://www.w3.org/2000/svg" xmlns:xlink="http://www.w3.org/1999/xlink" x="0px" y="0px"
	 width="100px" height="100px" viewBox="0 0 100 100" enable-background="new 0 0 100 100" xml:space="preserve">
<g>
	<g>
		<path fill="#FFFFFF" d="M50.117,71.769c-5.592,0-11.182-2.128-15.438-6.385c-4.124-4.123-6.396-9.606-6.396-15.438
			s2.271-11.315,6.396-15.439c0.915-0.914,1.915-1.752,2.974-2.492l2.434,3.486c-0.855,0.597-1.663,1.274-2.401,2.012
			c-3.321,3.321-5.15,7.736-5.15,12.432s1.829,9.111,5.15,12.433c6.855,6.855,18.009,6.854,24.865,0
			c3.32-3.321,5.149-7.736,5.149-12.433s-1.829-9.111-5.149-12.432c-4.073-4.074-9.892-5.895-15.566-4.87l-0.755-4.185
			c7.044-1.271,14.269,0.99,19.327,6.048c4.124,4.124,6.396,9.607,6.396,15.439s-2.271,11.315-6.396,15.438
			C61.3,69.64,55.707,71.768,50.117,71.769z"/>
	</g>
	<polygon fill="#FFFFFF" points="41.717,43.628 38.882,43.628 38.882,34.217 29.472,34.217 29.472,31.382 41.717,31.382 	"/>
</g>
</svg>
