<svg version="1.1" xmlns="http://www.w3.org/2000/svg" x="0px" y="0px"
	 width="264.641px" height="298.95px" viewBox="0 0 264.641 298.95" enable-background="new 0 0 264.641 298.95"
	 xml:space="preserve">
<g>
	<path d="M176.121,219.729c12.341-9.708,37.714-35.714,46.531-65.306C202.572,129.723,118.081,24.34,98.574,0
		c-1.995,23.1-22.291,71.707-57.504,87.956C24.89,95.849,8.763,100.77,2.627,102.513l120.496,145.914
		C136.734,244.037,163.634,229.534,176.121,219.729z"/>
	<g>
		<g>
			<path d="M257.517,228.89c-20.043,11.659-41.261,22.452-63.749,30.618c-26.613,9.664-58.738,20.601-69.024,23.633v15.81
				l132.731-47.731L257.517,228.89z"/>
			<polygon points="0,107.132 0,150.988 119.679,298.559 119.779,252.173 			"/>
		</g>
		<path d="M252.312,213.683c-15.471,12.136-35.107,24.425-56.358,35.04c-20.109,10.068-64.381,23.645-71.21,25.713v3.525
			c11.368-3.359,40.198-12.018,65.486-21.623c28.074-10.66,68.208-35.855,68.208-35.855L252.312,213.683z"/>
	</g>
	<path d="M228.139,153.292l-0.35,1.243c-8.793,31.272-34.689,58.148-48.605,69.097c-13.029,10.235-40.112,24.837-54.44,29.483v6.686
		c20.136-6.273,48.276-19.613,63.893-30.595c26.824-18.896,53.022-45.112,69.133-69.085l0.145,0.111
		c-18.146-20.488-119.012-135.938-125.546-144.24c-2.216,4.187-4.219,6.986-7.468,8.902
		c33.401,41.654,88.182,109.92,102.426,127.395L228.139,153.292z"/>
	<path d="M248.007,181.32c0,0-35.731,37.312-56.513,51.947c-17.564,12.359-44.711,24.488-66.75,31.354v4.619
		c2.135-0.656,5.667-1.746,10.076-3.148c16.239-5.171,44.435-14.563,58.919-21.809c28.691-14.334,54.338-31.679,70.409-47.442
		c0.163-0.165,0.325-0.328,0.493-0.494L248.007,181.32z"/>
</g>
</svg>
