<?xml version="1.0" encoding="utf-8"?>
<!-- Generator: Adobe Illustrator 16.2.0, SVG Export Plug-In . SVG Version: 6.00 Build 0)  -->
<!DOCTYPE svg PUBLIC "-//W3C//DTD SVG 1.1//EN" "http://www.w3.org/Graphics/SVG/1.1/DTD/svg11.dtd">
<svg version="1.1" id="Layer_1" xmlns="http://www.w3.org/2000/svg" xmlns:xlink="http://www.w3.org/1999/xlink" x="0px" y="0px"
	 width="100px" height="100px" viewBox="0 0 100 100" enable-background="new 0 0 100 100" xml:space="preserve">
<g>
	<path fill="#FFFFFF" d="M21.772,46.638c1.211,0,3.073,0.024,4.562-1.537c1.598-1.676,1.766-4.119,1.766-5.786
		c0-1.647-0.174-3.19-0.174-4.878c0-2.566,0.366-6.398,3.363-9.131c3.271-2.981,7.649-2.727,11.308-2.727h2.059v3.882h-2.354
		c-2.979,0-5.056-0.278-6.89,0.866c-2.624,1.639-2.731,4.956-2.731,6.34c0,1.632,0.201,3.125,0.201,4.79
		c0,1.622-0.182,3.637-1.083,5.481c-1.007,2.058-2.741,3.677-4.85,4.581c2.586,0.899,5.758,3.493,5.758,10.617
		c0,2.106-0.216,3.895-0.216,5.698c0,2.347,0.346,5.33,2.782,7.009c1.865,1.285,3.991,1.146,6.793,1.146h2.53v3.823h-2.471
		c-4.211,0-7.702,0.206-10.646-2.053c-3.591-2.756-3.8-7.417-3.8-9.892c0-2.656,0.256-4.688,0.256-6.813
		c0-2.943-0.46-4.928-1.798-6.238c-1.398-1.37-3.153-1.356-4.307-1.356H20.42v-3.823H21.772z"/>
	<path fill="#FFFFFF" d="M80.075,50.461h-1.412c-1.153,0-2.908-0.014-4.307,1.356c-1.338,1.311-1.798,3.295-1.798,6.238
		c0,2.125,0.256,4.157,0.256,6.813c0,2.475-0.208,7.136-3.799,9.892c-2.944,2.259-6.436,2.053-10.646,2.053h-2.47V72.99h2.529
		c2.802,0,4.928,0.139,6.793-1.146c2.437-1.679,2.783-4.662,2.783-7.009c0-1.804-0.217-3.592-0.217-5.698
		c0-7.124,3.172-9.718,5.758-10.617c-2.108-0.904-3.843-2.523-4.85-4.581c-0.901-1.845-1.083-3.859-1.083-5.481
		c0-1.665,0.201-3.158,0.201-4.79c0-1.384-0.107-4.701-2.731-6.34c-1.834-1.145-3.91-0.866-6.89-0.866H55.84v-3.882h2.06
		c3.657,0,8.037-0.255,11.307,2.727c2.998,2.732,3.363,6.564,3.363,9.131c0,1.688-0.174,3.23-0.174,4.878
		c0,1.667,0.169,4.11,1.766,5.786c1.488,1.562,3.351,1.537,4.562,1.537h1.353V50.461z"/>
</g>
</svg>
