<svg xmlns="http://www.w3.org/2000/svg" width="187" height="190"><rect x="-229.625" y="-328.752" fill="#D36A6A" width="1200" height="795"/><circle cx="93.5" cy="96.5" r="93.5" opacity=".75"/><circle fill="#2B3E50" cx="93.5" cy="93.5" r="93.5"/><path d="M88.943 121.175c-2.616 0-4.632 2.664-4.632 6.36 0 1.801 1.104 3.265 2.665 3.265 3.144 0 4.416-4.057 4.416-6.721 0-1.68-.936-2.904-2.449-2.904z" fill="none"/><path d="M102.143 92.175c-2.616 0-4.632 2.664-4.632 6.36 0 1.801 1.104 3.265 2.665 3.265 3.144 0 4.416-4.057 4.416-6.721-.001-1.68-.937-2.904-2.449-2.904z" fill="none"/><path d="M58.632 66.748h6.48c.144 0 .264.146.288.001.528-2.448-.36-3.696-2.76-3.696-2.136 0-3.672 1.187-4.2 3.635-.024.145.048.06.192.06z" fill="none"/><path d="M74.352 72.824c2.641 0 3.457-1.872 3.889-3.145.312-.984.6-2.376.696-3.36.12-1.272-.216-3.145-2.544-3.145-2.136 0-3.216 1.872-3.625 3.145-.288.984-.576 2.376-.696 3.36-.144 1.273.144 3.145 2.28 3.145z" fill="none"/><path d="M128.927 121.175c-2.544 0-3.648 1.872-4.056 3.145-.288.984-.576 2.376-.696 3.36-.144 1.272.312 3.145 2.712 3.145 2.544 0 3.648-1.872 4.056-3.145.288-.984.576-2.376.696-3.36.144-1.273-.312-3.145-2.712-3.145z" fill="none"/><path d="M139.774 72.8c3.144 0 4.416-4.057 4.416-6.721 0-1.68-.936-2.904-2.448-2.904-2.616 0-4.632 2.664-4.632 6.36 0 1.801 1.104 3.265 2.664 3.265z" fill="none"/><path d="M36.145 121.175c-2.616 0-4.632 2.664-4.632 6.36 0 1.801 1.104 3.265 2.665 3.265 3.144 0 4.416-4.057 4.416-6.721-.001-1.68-.937-2.904-2.449-2.904z" fill="none"/><path d="M62.928 92.175c-2.544 0-3.648 1.872-4.056 3.145-.288.984-.576 2.376-.696 3.36-.144 1.272.312 3.145 2.712 3.145 2.544 0 3.648-1.872 4.056-3.145.288-.984.576-2.376.696-3.36.145-1.273-.311-3.145-2.712-3.145z" fill="none"/><path d="M184.27 73.394c-.072.265-.336.354-.6.354h-.456c-.264 0-.432-.09-.36-.354l.93-4.333c-.459-1.706-.964-3.361-1.516-5.026l-.109.277-1.944 9.074c-.072.265-.336.362-.6.362h-.456c-.264 0-.432-.09-.36-.354l1.944-9.129c.144-.696-.384-1.121-1.152-1.121-.624 0-1.368.472-1.512 1.168l-1.944 9.074c-.072.265-.336.362-.6.362h-.456c-.264 0-.432-.09-.36-.354l2.328-11.104c.072-.264.336-.542.6-.542h.144c.144 0 .216.198.288.293.072.12.096.255.264.255.264 0 .552-.569 1.68-.569.864 0 1.392.448 1.608.88.022.066.105.133.193.144-12.717-36.536-47.456-62.755-88.324-62.755-51.639 0-93.5 41.863-93.5 93.502s41.861 93.501 93.5 93.501 93.5-41.86 93.5-93.499c0-7.338-.848-14.54-2.446-21.392l-.284 1.286zm-15.36-14.869l.264-1.332c.048-.192.264-.445.48-.445h1.248c.216 0 .336.333.288.526l-.264 1.181c-.048.216-.24.293-.456.293h-1.249c-.215 0-.359-.007-.311-.223zm-27.143 3.258c1.32 0 2.16.552 2.568 1.104.12.145.192.312.36.312.096 0 .168-.048.24-.192l.312-.893c.072-.192.264-.366.408-.366h.504c.264 0 .432.341.384.605l-2.376 10.978c-.048.265-.312.417-.576.417h-.36c-.144 0-.24.102-.336-.042-.144-.192.072-.729-.192-.729-.36 0-1.056 1.232-3.121 1.232-2.16 0-3.912-1.833-3.912-4.689 0-3.816 2.448-7.737 6.097-7.737zm-17.449 6.363l.168-.878c.072-.265.312-.519.576-.519h6.552c.264 0 .456.193.384.458l-.168.951c-.072.264-.312.591-.576.591h-6.553c-.263-.001-.455-.34-.383-.603zm7.273 18.127l-.264 1.182c-.048.216-.24.293-.456.293h-1.248c-.216 0-.36-.007-.312-.223l.264-1.332c.048-.192.264-.445.48-.445h1.248c.216 0 .336.334.288.525zm-28.68-27.748l.264-1.332c.048-.192.264-.445.48-.445h1.248c.216 0 .336.333.288.526l-.264 1.181c-.048.216-.24.293-.456.293h-1.248c-.216 0-.36-.007-.312-.223zm-6.792 14.869l.096-.322c.048-.264.312-.323.576-.323h3.24c.144 0 .264-.189.288-.334l1.848-8.534c.024-.144-.048-.132-.192-.132h-3c-.264 0-.432-.371-.384-.635l.096-.683c.072-.264.336-.682.6-.682h4.2c.264 0 .408.341.36.605l-2.088 9.999c-.024.144.048.396.192.396h3.145c.264 0 .432.123.384.387l-.096.306c-.072.265-.336.308-.6.308h-8.305c-.264-.002-.432-.092-.36-.356zm-12.744 0l3.384-16.087c.072-.265.336-.559.6-.559h.456c.264 0 .432.357.36.622l-1.848 8.807c-.024.12.072.18.168.083l5.496-4.092c.144-.119.384-.419.744-.419h.576c.432 0 .6.629.264.87l-6.193 4.647c-.24.192-.264.392-.12.607l4.392 5.194c.24.312.12.682-.456.682h-.528c-.36 0-.552-.114-.624-.234l-4.057-4.857c-.072-.072-.192-.041-.216.08l-.984 4.642c-.072.265-.336.37-.6.37h-.456c-.262-.002-.43-.092-.358-.356zm9.025 22.812l-.168.95c-.072.264-.312.592-.576.592h-6.553c-.264 0-.456-.339-.384-.603l.168-.878c.072-.266.312-.52.576-.52h6.552c.265.001.457.194.385.459zm-22.608-22.812l3.384-16.087c.048-.265.336-.559.6-.559h.456c.264 0 .408.357.36.622l-.912 4.415c-.048.217.096.54.432.54.48 0 1.08-.583 2.28-.583 2.952 0 4.368 2.049 4.008 4.569-.12.96-.432 2.405-.696 3.365-.744 2.52-2.184 4.563-5.353 4.563-1.776 0-2.088-.791-2.784-.791-.288 0-.48.09-.648.258-.12.096-.24.043-.384.043h-.384c-.264-.001-.408-.091-.359-.355zm-.625 29l.144-.536c.072-.312.12-.377.456-.713l8.688-8.351-.072-.046h-6.383c-.264 0-.408-.395-.36-.658l.072-.647c.048-.264.336-.694.6-.694h7.921c.264 0 .432.342.36.605l-.144.759c-.096.433-.408.752-.672 1.016l-8.233 8.295c-.12.12-.072.325.072.325h6.601c.264 0 .408.146.36.41l-.072.271c-.048.265-.336.319-.6.319h-8.401c-.241-.001-.409-.091-.337-.355zm-37.247-34.248l.168-.878c.072-.265.312-.519.576-.519h6.552c.264 0 .456.193.384.458l-.168.951c-.072.264-.312.591-.576.591h-6.553c-.262-.001-.454-.34-.383-.603zm0 29l.168-.878c.072-.266.312-.52.576-.52h6.552c.264 0 .456.193.384.458l-.168.95c-.072.264-.312.592-.576.592h-6.553c-.262 0-.454-.339-.383-.602zm6.649 34.248c-.048.265-.312.354-.576.354h-.36c-.144 0-.24.102-.336-.042-.144-.192.072-.729-.192-.729-.36 0-1.056 1.232-3.121 1.232-2.16 0-3.912-1.833-3.912-4.689 0-3.815 2.448-7.744 6.097-7.744 1.32 0 2.16.556 2.568 1.107.12.145.192.314.36.314.096 0 .168-.047.24-.191l.312-.893c.072-.192.264-.365.408-.365h.504c.264 0 .432.278.384.542l-2.376 11.104zm15.12-7.458l-1.608 7.458c-.048.265-.336.354-.6.354h-.456c-.264 0-.408-.09-.36-.354l1.608-7.521c.432-2.018-.744-2.729-2.473-2.729-1.728 0-3.192.736-3.6 2.656l-1.632 7.586c-.048.265-.336.362-.6.362h-.456c-.264 0-.408-.09-.36-.354l2.328-11.104c.048-.264.336-.542.6-.542h.384c.144 0 .216.197.288.293.12.168.216.447.504.447.696 0 1.104-.761 2.664-.761 2.521.001 4.345 1.472 3.769 4.209zm.456-30.296l-1.872 8.754c-.072.265-.336.354-.6.354h-.456c-.264 0-.432-.09-.36-.354l1.944-9.13c.168-.84-.432-1.12-1.2-1.12-.624 0-1.296.472-1.44 1.168l-1.944 9.074c-.072.265-.336.362-.6.362h-.457c-.264 0-.432-.09-.36-.354l1.944-9.13c.144-.695-.384-1.12-1.152-1.12-.624 0-1.368.472-1.512 1.168l-1.944 9.074c-.072.265-.336.362-.6.362h-.456c-.264 0-.432-.09-.36-.354l2.328-11.104c.072-.264.336-.542.6-.542h.144c.144 0 .216.197.288.293.072.121.096.256.264.256.264 0 .552-.569 1.68-.569.864 0 1.392.448 1.608.88.024.072.12.151.216.151s.192-.044.288-.14c.36-.36.936-.862 2.136-.862 1.609 0 2.185 1.418 1.873 2.883zm.984-31.215l-4.608 11.026c-.096.265-.336.297-.552.297h-.84c-.216 0-.36.006-.36-.234l.12-6.129c0-.168-.216-.136-.288.032l-2.472 6.082c-.096.265-.336.25-.552.25h-.937c-.216 0-.36.006-.36-.234l.096-11.151c0-.24.192-.614.576-.614h.504c.216 0 .36.221.36.486l-.216 8.749c0 .192.264.224.336.031l2.448-5.979c.12-.264.312-.29.528-.29h.768c.216 0 .384.042.384.305l-.096 6.022c0 .192.264.179.336-.014l3.432-8.821c.12-.288.336-.493.552-.493h.504c.385.002.433.439.337.679zm1.319 7.255c.12-.96.432-2.4.696-3.36.744-2.521 2.736-4.561 5.617-4.561 3.696 0 4.584 2.641 3.984 5.28l-.24 1.143c-.072.264-.336.566-.6.566h-7.608c-.144 0-.264.01-.288.154-.528 2.208.48 3.965 2.952 3.965 1.968 0 2.833-1.356 3.433-2.484.168-.312.408-.635.624-.635h.48c.24 0 .432.35.312.686-.72 2.088-2.616 3.703-5.113 3.703-2.881 0-4.61-1.937-4.249-4.457zm9.337 61.714c-.072.265-.336.354-.6.354h-8.305c-.264 0-.432-.09-.36-.354l.096-.322c.048-.264.312-.323.576-.323h3.24c.144 0 .264-.189.288-.334l1.848-8.534c.024-.144-.048-.132-.192-.132h-3c-.264 0-.432-.371-.384-.635l.096-.684c.072-.264.336-.682.6-.682h4.2c.264 0 .408.342.36.605l-2.088 9.998c-.024.144.048.396.192.396h3.145c.264 0 .432.06.384.323l-.096.324zm-2.473-14.869l.264-1.332c.048-.192.264-.445.48-.445h1.248c.216 0 .336.334.288.525l-.264 1.182c-.048.216-.24.293-.456.293h-1.249c-.215 0-.359-.007-.311-.223zm3.792-21.206c-.12.96-.432 2.4-.696 3.36-.744 2.521-2.641 4.561-5.521 4.561s-4.537-2.04-4.176-4.561c.12-.96.432-2.4.696-3.36.744-2.521 2.64-4.561 5.521-4.561s4.512 2.041 4.176 4.561zm13.44 27.321l-1.872 8.754c-.072.265-.336.354-.6.354h-.456c-.264 0-.432-.09-.36-.354l1.944-9.13c.168-.84-.432-1.12-1.2-1.12-.624 0-1.296.472-1.44 1.168l-1.944 9.074c-.072.265-.336.362-.6.362h-.456c-.264 0-.432-.09-.36-.354l1.944-9.13c.144-.695-.384-1.12-1.152-1.12-.624 0-1.368.472-1.512 1.168l-1.944 9.074c-.072.265-.336.362-.6.362h-.456c-.264 0-.432-.09-.36-.354l2.328-11.104c.072-.264.336-.542.6-.542h.144c.144 0 .216.197.288.293.072.121.096.256.264.256.264 0 .552-.569 1.68-.569.864 0 1.392.448 1.608.88.024.072.12.151.216.151s.192-.044.288-.14c.36-.36.936-.862 2.136-.862 1.608 0 2.184 1.418 1.872 2.883zm10.824 8.754c-.048.265-.312.354-.576.354h-.36c-.144 0-.24.102-.336-.042-.144-.192.072-.729-.192-.729-.36 0-1.056 1.232-3.121 1.232-2.16 0-3.912-1.833-3.912-4.689 0-3.815 2.448-7.744 6.097-7.744 1.32 0 2.16.556 2.568 1.107.12.145.192.314.36.314.096 0 .168-.047.24-.191l.312-.893c.072-.192.264-.365.408-.365h.504c.264 0 .432.278.384.542l-2.376 11.104zm15.264-10.981l-.096.655c-.048.265-.312.68-.576.68h-3.984c-.144 0-.264-.011-.288.134l-1.393 6.499c-.36 1.68.528 2.445 1.752 2.445 1.368 0 2.424-1.154 2.712-2.499.072-.264.312-.579.576-.579h.504c.264 0 .432.302.384.565-.432 2.16-2.112 3.884-4.224 3.884-2.4 0-3.625-1.707-3.168-3.819l1.416-6.507c.024-.145-.048-.123-.192-.123h-2.664c-.264 0-.432-.322-.384-.587l.096-.694c.072-.264.336-.719.6-.719h2.664c.144 0 .264.09.288-.055l.792-3.594c.048-.264.312-.352.576-.352h.48c.264 0 .432.182.384.445l-.792 3.518c-.024.145.048.037.192.037h3.984c.265.001.433.402.361.666zm-2.065-18.019c-.048.265-.312.354-.576.354h-.36c-.144 0-.24.102-.336-.042-.144-.192.072-.729-.192-.729-.36 0-1.056 1.232-3.121 1.232-2.16 0-3.912-1.833-3.912-4.689 0-3.815 2.448-7.744 6.097-7.744 1.32 0 2.16.556 2.568 1.107.12.145.192.314.36.314.096 0 .168-.047.24-.191l.312-.893c.072-.192.264-.365.408-.365h.504c.264 0 .432.278.384.542l-2.376 11.104zm14.016 29c-.072.265-.336.354-.6.354h-8.305c-.264 0-.432-.09-.36-.354l.096-.322c.048-.264.312-.323.576-.323h3.24c.144 0 .264-.189.288-.334l1.848-8.534c.024-.144-.048-.132-.192-.132h-3c-.264 0-.432-.371-.384-.635l.096-.684c.072-.264.336-.682.6-.682h4.2c.264 0 .408.342.36.605l-2.088 9.998c-.024.144.048.396.192.396h3.145c.264 0 .432.06.384.323l-.096.324zm-2.472-14.869l.264-1.332c.048-.192.264-.445.48-.445h1.248c.216 0 .336.334.288.525l-.264 1.182c-.048.216-.24.293-.456.293h-1.249c-.215 0-.359-.007-.311-.223zm3.577-21.589l-1.608 7.458c-.048.265-.336.354-.6.354h-.456c-.264 0-.408-.09-.36-.354l1.608-7.521c.432-2.018-.744-2.729-2.473-2.729-1.728 0-3.192.736-3.6 2.656l-1.632 7.586c-.048.265-.336.362-.6.362h-.456c-.264 0-.408-.09-.36-.354l2.328-11.104c.048-.264.336-.542.6-.542h.384c.144 0 .216.197.288.293.12.168.216.447.504.447.696 0 1.104-.761 2.664-.761 2.52.001 4.345 1.472 3.769 4.209zm.144-32.523l-.096.655c-.048.265-.312.68-.576.68h-3.984c-.144 0-.264-.011-.288.134l-1.392 6.499c-.36 1.68.528 2.445 1.752 2.445 1.368 0 2.424-1.154 2.712-2.499.072-.264.312-.579.576-.579h.504c.264 0 .432.302.384.565-.432 2.16-2.112 3.884-4.224 3.884-2.4 0-3.625-1.707-3.168-3.819l1.416-6.507c.024-.145-.048-.123-.192-.123h-2.664c-.264 0-.432-.322-.384-.587l.096-.695c.072-.264.336-.718.6-.718h2.664c.144 0 .264.09.288-.055l.792-3.593c.048-.264.312-.352.576-.352h.48c.264 0 .432.181.384.445l-.792 3.518c-.024.145.048.037.192.037h3.984c.263 0 .431.401.36.665zm2.686 39.981l.096-.322c.048-.264.312-.323.576-.323h3.24c.144 0 .264-.189.288-.334l1.848-8.534c.024-.144-.048-.132-.192-.132h-3c-.264 0-.432-.371-.384-.635l.096-.684c.072-.264.336-.682.6-.682h4.2c.264 0 .408.342.36.605l-2.088 9.998c-.024.144.048.396.192.396h3.145c.264 0 .432.123.384.387l-.096.306c-.072.265-.336.308-.6.308h-8.305c-.264 0-.432-.09-.36-.354zm10.585 21.925c-.12.96-.432 2.4-.696 3.36-.744 2.521-2.641 4.561-5.521 4.561s-4.537-2.04-4.177-4.561c.12-.96.432-2.4.696-3.36.744-2.521 2.64-4.561 5.521-4.561s4.513 2.041 4.177 4.561zm12.984-.383l-1.608 7.458c-.048.265-.336.354-.6.354h-.456c-.264 0-.408-.09-.36-.354l1.608-7.521c.432-2.018-.744-2.729-2.473-2.729-1.728 0-3.192.736-3.6 2.656l-1.632 7.586c-.048.265-.336.362-.6.362h-.456c-.264 0-.408-.09-.36-.354l2.328-11.104c.048-.264.336-.542.6-.542h.384c.144 0 .216.197.288.293.12.168.216.447.504.447.696 0 1.104-.761 2.664-.761 2.521.001 4.345 1.472 3.769 4.209zm.456-30.296l-1.872 8.754c-.072.265-.336.354-.6.354h-.456c-.264 0-.432-.09-.36-.354l1.944-9.13c.168-.84-.432-1.12-1.2-1.12-.624 0-1.296.472-1.44 1.168l-1.944 9.074c-.072.265-.336.362-.6.362h-.456c-.264 0-.432-.09-.36-.354l1.944-9.13c.144-.695-.384-1.12-1.152-1.12-.624 0-1.368.472-1.512 1.168l-1.944 9.074c-.072.265-.336.362-.6.362h-.456c-.264 0-.432-.09-.36-.354l2.329-11.104c.072-.264.336-.542.6-.542h.144c.144 0 .216.197.288.293.072.121.096.256.264.256.264 0 .552-.569 1.68-.569.864 0 1.392.448 1.608.88.024.072.12.151.216.151s.192-.044.288-.14c.36-.36.936-.862 2.136-.862 1.607 0 2.183 1.418 1.871 2.883zm2.207-20.246l2.328-11.104c.048-.264.336-.542.6-.542h.384c.144 0 .216.198.288.293.12.168.216.447.504.447.696 0 1.104-.761 2.664-.761 2.521 0 4.344 1.456 3.769 4.192l-1.608 7.466c-.048.265-.336.362-.6.362h-.456c-.264 0-.408-.09-.36-.354l1.608-7.521c.432-2.017-.744-2.729-2.473-2.729-1.728 0-3.192.736-3.6 2.656l-1.632 7.586c-.048.265-.336.362-.6.362h-.456c-.264.001-.408-.089-.36-.353zm2.832 58.894c-.888 0-1.584-.72-1.584-1.608 0-.912.72-1.632 1.632-1.632.864 0 1.584.72 1.584 1.608 0 .912-.72 1.632-1.632 1.632zm.024-7.585c-.888 0-1.608-.696-1.608-1.584 0-.912.72-1.656 1.632-1.656.864 0 1.584.721 1.584 1.608 0 .912-.72 1.632-1.608 1.632zm5.76-22.309c-.048.265-.312.354-.576.354h-.36c-.144 0-.24.102-.336-.042-.144-.192.072-.729-.192-.729-.36 0-1.056 1.232-3.121 1.232-2.16 0-3.912-1.833-3.912-4.689 0-3.815 2.448-7.744 6.097-7.744 1.32 0 2.16.556 2.568 1.107.12.145.192.314.36.314.096 0 .168-.047.24-.191l.312-.893c.072-.192.264-.365.408-.365h.504c.264 0 .432.278.384.542l-2.376 11.104zm4.751-29l.096-.322c.048-.264.312-.323.576-.323h3.24c.144 0 .264-.189.288-.334l1.848-8.534c.024-.144-.048-.132-.192-.132h-3c-.264 0-.432-.371-.384-.635l.096-.683c.072-.264.336-.682.6-.682h4.2c.264 0 .408.341.36.605l-2.088 9.999c-.024.144.048.396.192.396h3.145c.264 0 .432.123.384.387l-.096.306c-.072.265-.336.308-.6.308h-8.305c-.264-.002-.432-.092-.36-.356zm10.513 18.019l-.096.655c-.048.265-.312.68-.576.68h-3.984c-.144 0-.264-.011-.288.134l-1.392 6.499c-.36 1.68.528 2.445 1.752 2.445 1.368 0 2.424-1.154 2.712-2.499.072-.264.312-.579.576-.579h.504c.264 0 .432.302.384.565-.432 2.16-2.112 3.884-4.224 3.884-2.4 0-3.625-1.707-3.168-3.819l1.416-6.507c.024-.145-.048-.123-.192-.123h-2.664c-.264 0-.432-.322-.384-.587l.096-.694c.072-.264.336-.719.6-.719h2.664c.144 0 .264.09.288-.055l.792-3.594c.048-.264.312-.352.576-.352h.48c.264 0 .432.182.384.445l-.792 3.518c-.024.145.048.037.192.037h3.984c.264.001.432.402.36.666zm9.479-3.888l.264-1.332c.048-.192.264-.445.48-.445h1.248c.216 0 .336.334.288.525l-.264 1.182c-.048.216-.24.293-.456.293h-1.248c-.215 0-.359-.007-.312-.223zm2.473 14.869c-.072.265-.336.354-.6.354h-8.305c-.264 0-.432-.09-.36-.354l.096-.322c.048-.264.312-.323.576-.323h3.24c.144 0 .264-.189.288-.334l1.848-8.534c.024-.144-.048-.132-.192-.132h-3c-.264 0-.432-.371-.384-.635l.096-.684c.072-.264.336-.682.6-.682h4.2c.264 0 .408.342.36.605l-2.088 9.998c-.024.144.048.396.192.396h3.145c.264 0 .432.06.384.323l-.096.324z" fill="none"/><path d="M154.942 92.175c-2.616 0-4.632 2.664-4.632 6.36 0 1.801 1.104 3.265 2.665 3.265 3.144 0 4.416-4.057 4.416-6.721-.001-1.68-.937-2.904-2.449-2.904z" fill="none"/><path fill="#FDB913" d="M32.304 68.748h6.553c.264 0 .504-.339.576-.603l.168-.878c.072-.265-.12-.519-.384-.519h-6.552c-.264 0-.504.193-.576.458l-.168.951c-.072.263.12.591.383.591z"/><path fill="#FDB913" d="M54.793 61.748h-.504c-.216 0-.432.198-.552.486l-3.432 8.751c-.072.192-.336.224-.336.031l.096-5.979c0-.264-.168-.29-.384-.29h-.768c-.216 0-.408.042-.528.305l-2.448 6.022c-.072.192-.336.179-.336-.014l.216-8.821c0-.265-.144-.493-.36-.493h-.504c-.384 0-.576.437-.576.677l-.097 11.028c0 .24.144.297.36.297h.936c.216 0 .456.03.552-.234l2.472-6.129c.072-.168.288-.136.288.032l-.12 6.082c0 .24.144.25.36.25h.84c.216 0 .456.03.552-.234l4.608-11.151c.097-.242.049-.616-.335-.616z"/><path fill="#FDB913" d="M60.696 74.24c2.497 0 4.393-1.719 5.113-3.807.12-.336-.072-.686-.312-.686h-.48c-.216 0-.456.302-.624.613-.6 1.128-1.464 2.359-3.433 2.359-2.472 0-3.48-1.662-2.952-3.87.024-.144.144-.103.288-.103h7.608c.264 0 .528-.302.6-.566l.24-1.1c.6-2.64-.288-5.302-3.984-5.302-2.88 0-4.873 2.029-5.617 4.55-.264.96-.576 2.395-.696 3.355-.36 2.523 1.369 4.557 4.249 4.557zm1.944-11.065c2.4 0 3.289 1.126 2.76 3.575-.024.145-.144-.001-.288-.001h-6.48c-.144 0-.216.146-.192.001.528-2.449 2.064-3.575 4.2-3.575z"/><path fill="#FDB913" d="M70.151 73.748h.384c.144 0 .264.054.384-.042.168-.168.36-.321.648-.321.696 0 1.008.824 2.784.824 3.168 0 4.608-2.024 5.353-4.545.264-.96.576-2.393.696-3.353.36-2.521-1.056-4.557-4.008-4.557-1.2 0-1.8.603-2.28.603-.336 0-.48-.287-.432-.504l.912-4.484c.048-.265-.096-.621-.36-.621h-.456c-.264 0-.552.357-.6.622l-3.384 15.954c-.049.264.095.424.359.424zm1.921-4.068c.12-.984.408-2.376.696-3.36.408-1.272 1.488-3.145 3.625-3.145 2.328 0 2.664 1.872 2.544 3.145-.096.984-.384 2.376-.696 3.36-.432 1.272-1.248 3.145-3.889 3.145-2.136-.001-2.424-1.873-2.28-3.145z"/><path fill="#FDB913" d="M83.735 73.748h.456c.264 0 .528-.09.6-.354l.984-4.689c.024-.12.144-.088.216-.016l4.057 4.81c.072.12.264.25.624.25h.528c.576 0 .696-.354.456-.666l-4.392-5.242c-.144-.216-.12-.352.12-.544l6.193-4.694c.336-.24.168-.854-.264-.854h-.576c-.36 0-.6.318-.744.437l-5.496 4.047c-.096.097-.192.104-.168-.017l1.848-8.862c.072-.265-.096-.606-.36-.606h-.456c-.264 0-.528.357-.6.622l-3.384 15.954c-.074.264.094.424.358.424z"/><path fill="#FDB913" d="M96.479 73.748h8.305c.264 0 .528-.09.6-.354l.096-.322c.048-.264-.12-.323-.384-.323h-3.145c-.144 0-.216-.189-.192-.334l2.088-10.014c.048-.264-.096-.652-.36-.652h-4.2c-.264 0-.528.341-.6.605l-.096.698c-.048.264.12.697.384.697h3c.144 0 .216-.059.192.085l-1.848 8.659c-.024.143-.144.256-.288.256h-3.24c-.264 0-.528.123-.576.387l-.096.306c-.072.263.096.306.36.306z"/><path fill="#FDB913" d="M103.224 58.748h1.248c.216 0 .408-.007.456-.223l.264-1.332c.048-.192-.072-.445-.288-.445h-1.248c-.216 0-.432.333-.48.526l-.264 1.181c-.049.216.095.293.312.293z"/><path fill="#FDB913" d="M119.471 61.748h-3.984c-.144 0-.216.09-.192-.055l.792-3.593c.048-.264-.12-.352-.384-.352h-.48c-.264 0-.528.181-.576.445l-.792 3.518c-.024.145-.144.037-.288.037h-2.664c-.264 0-.528.401-.6.665l-.096.655c-.048.265.12.68.384.68h2.664c.144 0 .216-.011.192.134l-1.416 6.571c-.456 2.111.768 3.813 3.168 3.813 2.112 0 3.792-1.779 4.224-3.939.048-.264-.12-.579-.384-.579h-.504c-.264 0-.504.302-.576.565-.288 1.345-1.344 2.443-2.712 2.443-1.224 0-2.112-.771-1.752-2.45l1.392-6.436c.024-.145.144-.123.288-.123h3.984c.264 0 .528-.322.576-.587l.096-.695c.072-.262-.096-.717-.36-.717z"/><path fill="#FDB913" d="M124.702 68.748h6.553c.264 0 .504-.339.576-.603l.168-.878c.072-.265-.12-.519-.384-.519h-6.552c-.264 0-.504.193-.576.458l-.168.951c-.073.263.119.591.383.591z"/><path fill="#FDB913" d="M139.582 74.24c2.064 0 2.76-1.2 3.121-1.2.264 0 .048.474.192.666.096.144.192.042.336.042h.36c.264 0 .528-.09.576-.354l2.376-11.104c.048-.264-.12-.542-.384-.542h-.504c-.144 0-.336.173-.408.366l-.312.831c-.072.145-.144.224-.24.224-.168 0-.24-.152-.36-.297-.408-.552-1.248-1.096-2.568-1.096-3.648 0-6.097 3.94-6.097 7.756 0 2.856 1.752 4.708 3.912 4.708zm2.16-11.065c1.512 0 2.448 1.225 2.448 2.904 0 2.664-1.272 6.721-4.416 6.721-1.561 0-2.665-1.464-2.665-3.265.001-3.696 2.017-6.36 4.633-6.36z"/><path fill="#FDB913" d="M149.565 73.748c.264 0 .552-.09.6-.354l1.632-7.641c.408-1.92 1.872-2.609 3.6-2.609 1.729 0 2.904.76 2.473 2.776l-1.608 7.466c-.048.265.096.362.36.362h.456c.264 0 .552-.09.6-.354l1.608-7.521c.576-2.736-1.248-4.145-3.769-4.145-1.56 0-1.968.808-2.664.808-.288 0-.384-.333-.504-.501-.072-.096-.144-.286-.288-.286h-.384c-.264 0-.552.341-.6.605l-2.328 10.978c-.048.265.096.417.36.417h.456z"/><path fill="#FDB913" d="M169.222 58.748h1.249c.216 0 .408-.007.456-.223l.264-1.332c.048-.192-.072-.445-.288-.445h-1.248c-.216 0-.432.333-.48.526l-.264 1.181c-.049.216.095.293.311.293z"/><path fill="#FDB913" d="M171.382 73.394l.096-.322c.048-.264-.12-.323-.384-.323h-3.145c-.144 0-.216-.189-.192-.334l2.088-10.014c.048-.264-.096-.652-.36-.652h-4.2c-.264 0-.528.341-.6.605l-.096.698c-.048.264.12.697.384.697h3c.144 0 .216-.059.192.085l-1.848 8.659c-.024.143-.144.256-.288.256h-3.24c-.264 0-.528.123-.576.387l-.096.306c-.072.265.096.308.36.308h8.305c.264-.002.528-.092.6-.356z"/><path fill="#FDB913" d="M183.214 73.748h.456c.264 0 .528-.09.6-.354l.284-1.284c-.239-1.023-.499-2.007-.771-3.018l-.93 4.286c-.071.265.097.37.361.37z"/><path fill="#FDB913" d="M181.629 62.623c-.216-.432-.744-.864-1.608-.864-1.128 0-1.416.601-1.68.601-.168 0-.192-.198-.264-.318-.072-.096-.144-.293-.288-.293h-.144c-.264 0-.528.341-.6.605l-2.328 10.978c-.072.265.096.417.36.417h.456c.264 0 .528-.09.6-.354l1.944-9.129c.144-.696.888-1.121 1.512-1.121.768 0 1.296.472 1.152 1.168l-1.944 9.074c-.072.265.096.362.36.362h.456c.264 0 .528-.09.6-.354l1.944-9.129.109-.23c-.145-.438-.294-.857-.445-1.291-.086-.013-.17-.056-.192-.122z"/><path fill="#FDB913" d="M32.304 97.748h6.553c.264 0 .504-.339.576-.603l.168-.878c.072-.266-.12-.52-.384-.52h-6.552c-.264 0-.504.193-.576.458l-.168.95c-.072.265.12.593.383.593z"/><path fill="#FDB913" d="M52.273 90.759c-1.2 0-1.776.504-2.136.864-.096.096-.192.144-.288.144-.096 0-.192-.071-.216-.144-.216-.432-.744-.864-1.608-.864-1.128 0-1.416.601-1.68.601-.168 0-.192-.197-.264-.318-.072-.096-.144-.293-.288-.293h-.144c-.264 0-.528.342-.6.605l-2.328 10.978c-.072.265.096.417.36.417h.456c.264 0 .528-.09.6-.354l1.944-9.13c.144-.695.888-1.12 1.512-1.12.768 0 1.296.472 1.152 1.168l-1.944 9.074c-.072.265.096.362.36.362h.456c.264 0 .528-.09.6-.354l1.944-9.13c.144-.695.816-1.12 1.44-1.12.768 0 1.368.328 1.2 1.168l-1.944 9.074c-.072.265.096.362.36.362h.456c.264 0 .528-.09.6-.354l1.872-8.817c.312-1.467-.264-2.819-1.872-2.819z"/><path fill="#FDB913" d="M62.928 90.759c-2.88 0-4.776 2.04-5.521 4.561-.264.96-.576 2.4-.696 3.36-.36 2.521 1.296 4.561 4.176 4.561s4.776-2.04 5.521-4.561c.264-.96.576-2.4.696-3.36.336-2.521-1.295-4.561-4.176-4.561zm2.713 4.56c-.12.984-.408 2.376-.696 3.36-.408 1.272-1.512 3.145-4.056 3.145-2.4 0-2.856-1.872-2.712-3.145.12-.984.408-2.376.696-3.36.408-1.272 1.512-3.145 4.056-3.145 2.4.001 2.856 1.873 2.712 3.145z"/><path fill="#FDB913" d="M69.503 102.748h8.401c.264 0 .552-.09.6-.354l.072-.298c.048-.264-.096-.348-.36-.348h-6.601c-.144 0-.192-.189-.072-.31l8.233-8.244c.264-.264.576-.569.672-1.002l.144-.831c.072-.264-.096-.613-.36-.613h-7.921c-.264 0-.552.342-.6.605l-.072.674c-.048.264.096.721.36.721h6.385c.144 0 .192-.059.072.062l-8.688 8.456c-.336.336-.384.387-.456.699l-.144.451c-.073.265.095.332.335.332z"/><path fill="#FDB913" d="M85.463 95.748c-.264 0-.504.193-.576.458l-.168.95c-.072.264.12.592.384.592h6.553c.264 0 .504-.339.576-.603l.168-.878c.072-.266-.12-.52-.384-.52h-6.553z"/><path fill="#FDB913" d="M106.56 90.748h-.504c-.144 0-.336.174-.408.365l-.312.831c-.072.145-.144.224-.24.224-.168 0-.24-.152-.36-.297-.408-.552-1.248-1.096-2.568-1.096-3.648 0-6.097 3.94-6.097 7.756 0 2.856 1.752 4.707 3.912 4.707 2.064 0 2.76-1.199 3.121-1.199.264 0 .048.475.192.666.096.145.192.043.336.043h.36c.264 0 .528-.09.576-.354l2.376-11.104c.048-.264-.12-.542-.384-.542zm-6.385 11.052c-1.56 0-2.665-1.464-2.665-3.265 0-3.696 2.016-6.36 4.632-6.36 1.512 0 2.448 1.225 2.448 2.904.001 2.664-1.271 6.721-4.415 6.721z"/><path fill="#FDB913" d="M115.919 90.759c-1.56 0-1.968.792-2.664.792-.288 0-.384-.342-.504-.51-.072-.096-.144-.293-.288-.293h-.384c-.264 0-.552.342-.6.605l-2.328 10.978c-.048.265.096.417.36.417h.456c.264 0 .552-.09.6-.354l1.632-7.642c.408-1.92 1.872-2.608 3.6-2.608 1.729 0 2.904.76 2.473 2.776l-1.608 7.466c-.048.265.096.362.36.362h.456c.264 0 .552-.09.6-.354l1.608-7.521c.576-2.736-1.249-4.114-3.769-4.114z"/><path fill="#FDB913" d="M130.055 85.748c-.216 0-.432.334-.48.525l-.264 1.182c-.048.216.096.293.312.293h1.248c.216 0 .408-.007.456-.223l.264-1.332c.048-.192-.072-.445-.288-.445h-1.248z"/><path fill="#FDB913" d="M131.183 102.748c.264 0 .528-.09.6-.354l.096-.322c.048-.264-.12-.323-.384-.323h-3.145c-.144 0-.216-.189-.192-.334l2.088-10.014c.048-.264-.096-.652-.36-.652h-4.2c-.264 0-.528.342-.6.605l-.096.697c-.048.264.12.697.384.697h3c.144 0 .216-.059.192.085l-1.848 8.659c-.024.143-.144.256-.288.256h-3.24c-.264 0-.528.123-.576.387l-.096.306c-.072.265.096.308.36.308h8.305z"/><path fill="#FDB913" d="M144.671 90.759c-1.2 0-1.776.504-2.136.864-.096.096-.192.144-.288.144-.096 0-.192-.071-.216-.144-.216-.432-.744-.864-1.608-.864-1.128 0-1.416.601-1.68.601-.168 0-.192-.197-.264-.318-.072-.096-.144-.293-.288-.293h-.144c-.264 0-.528.342-.6.605l-2.329 10.978c-.072.265.096.417.36.417h.456c.264 0 .528-.09.6-.354l1.944-9.13c.144-.695.888-1.12 1.512-1.12.768 0 1.296.472 1.152 1.168l-1.944 9.074c-.072.265.096.362.36.362h.456c.264 0 .528-.09.6-.354l1.944-9.13c.144-.695.816-1.12 1.44-1.12.768 0 1.368.328 1.2 1.168l-1.944 9.074c-.072.265.096.362.36.362h.456c.264 0 .528-.09.6-.354l1.872-8.817c.313-1.467-.263-2.819-1.871-2.819z"/><path fill="#FDB913" d="M159.358 90.748h-.504c-.144 0-.336.174-.408.365l-.312.831c-.072.145-.144.224-.24.224-.168 0-.24-.152-.36-.297-.408-.552-1.248-1.096-2.568-1.096-3.648 0-6.097 3.94-6.097 7.756 0 2.856 1.752 4.707 3.912 4.707 2.064 0 2.76-1.199 3.121-1.199.264 0 .048.475.192.666.096.145.192.043.336.043h.36c.264 0 .528-.09.576-.354l2.376-11.104c.049-.264-.119-.542-.384-.542zm-6.384 11.052c-1.56 0-2.665-1.464-2.665-3.265 0-3.696 2.016-6.36 4.632-6.36 1.512 0 2.448 1.225 2.448 2.904.001 2.664-1.271 6.721-4.415 6.721z"/><path fill="#FDB913" d="M172.27 90.748h-3.984c-.144 0-.216.09-.192-.055l.792-3.594c.048-.264-.12-.352-.384-.352h-.48c-.264 0-.528.182-.576.445l-.792 3.518c-.024.145-.144.037-.288.037h-2.664c-.264 0-.528.401-.6.665l-.096.655c-.048.265.12.68.384.68h2.664c.144 0 .216-.011.192.134l-1.416 6.571c-.456 2.111.768 3.813 3.168 3.813 2.112 0 3.792-1.779 4.224-3.939.048-.264-.12-.579-.384-.579h-.504c-.264 0-.504.302-.576.565-.288 1.345-1.344 2.443-2.712 2.443-1.224 0-2.112-.771-1.752-2.45l1.392-6.436c.024-.145.144-.123.288-.123h3.984c.264 0 .528-.322.576-.587l.096-.694c.072-.262-.096-.717-.36-.717z"/><path fill="#FDB913" d="M182.422 87.748h1.248c.216 0 .408-.007.456-.223l.264-1.332c.048-.192-.072-.445-.288-.445h-1.248c-.216 0-.432.334-.48.525l-.264 1.182c-.048.216.096.293.312.293z"/><path fill="#FDB913" d="M184.294 101.748h-3.145c-.144 0-.216-.189-.192-.334l2.088-10.014c.048-.264-.096-.652-.36-.652h-4.2c-.264 0-.528.342-.6.605l-.096.697c-.048.264.12.697.384.697h3c.144 0 .216-.059.192.085l-1.848 8.659c-.024.143-.144.256-.288.256h-3.24c-.264 0-.528.123-.576.387l-.096.306c-.072.265.096.308.36.308h8.305c.264 0 .528-.09.6-.354l.096-.322c.048-.264-.12-.324-.384-.324z"/><path fill="#FDB913" d="M40.561 119.748h-.504c-.144 0-.336.174-.408.365l-.312.831c-.072.145-.144.224-.24.224-.168 0-.24-.152-.36-.297-.408-.552-1.248-1.096-2.568-1.096-3.648 0-6.097 3.94-6.097 7.756 0 2.856 1.752 4.707 3.912 4.707 2.064 0 2.76-1.199 3.121-1.199.264 0 .048.475.192.666.096.145.192.043.336.043h.36c.264 0 .528-.09.576-.354l2.376-11.104c.048-.264-.12-.542-.384-.542zm-6.384 11.052c-1.561 0-2.665-1.464-2.665-3.265 0-3.696 2.016-6.36 4.632-6.36 1.512 0 2.448 1.225 2.448 2.904.001 2.664-1.271 6.721-4.415 6.721z"/><path fill="#FDB913" d="M49.92 119.759c-1.56 0-1.968.792-2.664.792-.288 0-.384-.342-.504-.51-.072-.096-.144-.293-.288-.293h-.384c-.264 0-.552.342-.6.605l-2.328 10.978c-.048.265.096.417.36.417h.456c.264 0 .552-.09.6-.354l1.632-7.642c.408-1.92 1.872-2.608 3.6-2.608 1.729 0 2.904.76 2.473 2.776l-1.608 7.466c-.048.265.096.362.36.362h.456c.264 0 .552-.09.6-.354l1.608-7.521c.576-2.736-1.248-4.114-3.769-4.114z"/><path fill="#FDB913" d="M64.873 116.748c.216 0 .408-.007.456-.223l.264-1.332c.048-.192-.072-.445-.288-.445h-1.248c-.216 0-.432.334-.48.525l-.264 1.182c-.048.216.096.293.312.293h1.248z"/><path fill="#FDB913" d="M65.497 130.748h-3.145c-.144 0-.216-.189-.192-.334l2.088-10.014c.048-.264-.096-.652-.36-.652h-4.2c-.264 0-.528.342-.6.605l-.096.697c-.048.264.12.697.384.697h3c.144 0 .216-.059.192.085l-1.848 8.659c-.024.143-.144.256-.288.256h-3.24c-.264 0-.528.123-.576.387l-.096.306c-.072.265.096.308.36.308h8.305c.264 0 .528-.09.6-.354l.096-.322c.048-.264-.121-.324-.384-.324z"/><path fill="#FDB913" d="M78.672 119.759c-1.2 0-1.776.504-2.136.864-.096.096-.192.144-.288.144-.096 0-.192-.071-.216-.144-.216-.432-.744-.864-1.608-.864-1.128 0-1.416.601-1.68.601-.168 0-.192-.197-.264-.318-.072-.096-.144-.293-.288-.293h-.144c-.264 0-.528.342-.6.605l-2.328 10.978c-.072.265.096.417.36.417h.456c.264 0 .528-.09.6-.354l1.944-9.13c.144-.695.888-1.12 1.512-1.12.768 0 1.296.472 1.152 1.168l-1.944 9.074c-.072.265.096.362.36.362h.456c.264 0 .528-.09.6-.354l1.944-9.13c.144-.695.816-1.12 1.44-1.12.768 0 1.368.328 1.2 1.168l-1.944 9.074c-.072.265.096.362.36.362h.456c.264 0 .528-.09.6-.354l1.872-8.817c.312-1.467-.264-2.819-1.872-2.819z"/><path fill="#FDB913" d="M93.36 119.748h-.504c-.144 0-.336.174-.408.365l-.312.831c-.072.145-.144.224-.24.224-.168 0-.24-.152-.36-.297-.408-.552-1.248-1.096-2.568-1.096-3.648 0-6.097 3.94-6.097 7.756 0 2.856 1.752 4.707 3.912 4.707 2.064 0 2.76-1.199 3.121-1.199.264 0 .048.475.192.666.096.145.192.043.336.043h.36c.264 0 .528-.09.576-.354l2.376-11.104c.048-.264-.12-.542-.384-.542zm-6.384 11.052c-1.561 0-2.665-1.464-2.665-3.265 0-3.696 2.016-6.36 4.632-6.36 1.512 0 2.448 1.225 2.448 2.904.001 2.664-1.271 6.721-4.415 6.721z"/><path fill="#FDB913" d="M106.271 119.748h-3.984c-.144 0-.216.09-.192-.055l.792-3.594c.048-.264-.12-.352-.384-.352h-.48c-.264 0-.528.182-.576.445l-.792 3.518c-.024.145-.144.037-.288.037h-2.664c-.264 0-.528.401-.6.665l-.096.655c-.048.265.12.68.384.68h2.664c.144 0 .216-.011.192.134l-1.416 6.571c-.456 2.111.768 3.813 3.168 3.813 2.112 0 3.792-1.779 4.224-3.939.048-.264-.12-.579-.384-.579h-.504c-.264 0-.504.302-.576.565-.288 1.345-1.344 2.443-2.712 2.443-1.224 0-2.112-.771-1.752-2.45l1.393-6.436c.024-.145.144-.123.288-.123h3.984c.264 0 .528-.322.576-.587l.096-.694c.072-.262-.096-.717-.361-.717z"/><path fill="#FDB913" d="M118.295 130.748h-3.145c-.144 0-.216-.189-.192-.334l2.088-10.014c.048-.264-.096-.652-.36-.652h-4.2c-.264 0-.528.342-.6.605l-.096.697c-.048.264.12.697.384.697h3c.144 0 .216-.059.192.085l-1.848 8.659c-.024.143-.144.256-.288.256h-3.24c-.264 0-.528.123-.576.387l-.096.306c-.072.265.096.308.36.308h8.305c.264 0 .528-.09.6-.354l.096-.322c.049-.264-.12-.324-.384-.324z"/><path fill="#FDB913" d="M117.671 116.748c.216 0 .408-.007.456-.223l.264-1.332c.048-.192-.072-.445-.288-.445h-1.248c-.216 0-.432.334-.48.525l-.264 1.182c-.048.216.096.293.312.293h1.248z"/><path fill="#FDB913" d="M128.927 119.759c-2.88 0-4.776 2.04-5.521 4.561-.264.96-.576 2.4-.696 3.36-.36 2.521 1.296 4.561 4.177 4.561 2.88 0 4.776-2.04 5.521-4.561.264-.96.576-2.4.696-3.36.335-2.521-1.297-4.561-4.177-4.561zm2.712 4.56c-.12.984-.408 2.376-.696 3.36-.408 1.272-1.512 3.145-4.056 3.145-2.4 0-2.856-1.872-2.712-3.145.12-.984.408-2.376.696-3.36.408-1.272 1.512-3.145 4.056-3.145 2.4.001 2.856 1.873 2.712 3.145z"/><path fill="#FDB913" d="M142.318 119.759c-1.56 0-1.968.792-2.664.792-.288 0-.384-.342-.504-.51-.072-.096-.144-.293-.288-.293h-.384c-.264 0-.552.342-.6.605l-2.328 10.978c-.048.265.096.417.36.417h.456c.264 0 .552-.09.6-.354l1.632-7.642c.408-1.92 1.872-2.608 3.6-2.608 1.729 0 2.904.76 2.473 2.776l-1.608 7.466c-.048.265.096.362.36.362h.456c.264 0 .552-.09.6-.354l1.608-7.521c.576-2.736-1.248-4.114-3.769-4.114z"/><path fill="#FDB913" d="M151.63 121.463c-.912 0-1.632.744-1.632 1.656 0 .888.72 1.584 1.608 1.584s1.608-.72 1.608-1.632c0-.887-.72-1.608-1.584-1.608z"/><path fill="#FDB913" d="M151.63 129.048c-.912 0-1.632.72-1.632 1.632 0 .889.696 1.608 1.584 1.608.912 0 1.632-.72 1.632-1.632 0-.888-.72-1.608-1.584-1.608z"/><circle cx="93.5" cy="93.5" r="93.5" fill="none"/></svg>