<svg xmlns="http://www.w3.org/2000/svg" width="233.681" height="188.259"><rect x="-727.922" y="-327.708" fill="#D36A6A" width="1200" height="795"/><circle fill="#D83827" cx="139.551" cy="94.129" r="47.197"/><circle fill="#F1C40D" stroke="#F1C40D" stroke-miterlimit="10" cx="139.551" cy="94.129" r="17.586"/><path fill="#78DDB2" d="M139.551 152.579c-32.229 0-58.449-26.221-58.449-58.449s26.221-58.449 58.449-58.449 58.449 26.22 58.449 58.448-26.221 58.45-58.449 58.45zm0-104.424c-25.351 0-45.975 20.624-45.975 45.975s20.624 45.975 45.975 45.975 45.975-20.624 45.975-45.975-20.625-45.975-45.975-45.975z"/><path fill="#2B3E50" d="M139.551 167.55c-40.484 0-73.421-32.937-73.421-73.421s32.937-73.421 73.421-73.421 73.421 32.937 73.421 73.421-32.937 73.421-73.421 73.421zm0-132.334c-32.485 0-58.914 26.428-58.914 58.913s26.429 58.914 58.914 58.914 58.914-26.429 58.914-58.914-26.429-58.913-58.914-58.913z"/><path stroke="#2B3E50" stroke-width="1.417" stroke-miterlimit="10" d="M139.551 187.55c-51.512 0-93.421-41.909-93.421-93.421s41.909-93.421 93.421-93.421 93.421 41.909 93.421 93.421-41.91 93.421-93.421 93.421z" fill="none"/><path stroke="#2B3E50" stroke-width="1.417" stroke-miterlimit="10" d="M139.551 11.946c-45.317 0-82.185 36.866-82.185 82.184s36.867 82.185 82.185 82.185 82.185-36.867 82.185-82.185-36.868-82.184-82.185-82.184z" fill="none"/><circle fill="#2B3E50" cx="139.551" cy="94.129" r="6.527"/><g opacity=".75" stroke="#582B00" stroke-width="2.835" stroke-miterlimit="10" fill="none"><line x1="7.323" y1="133.234" x2="139.551" y2="97.129"/><line x1="7.323" y1="133.234" x2=".81" y2="128.699"/><line x1="12.944" y1="131.7" x2="6.429" y2="127.165"/><line x1="18.563" y1="130.165" x2="12.049" y2="125.63"/><line x1="7.41" y1="133.549" x2="4.104" y2="140.765"/><line x1="13.03" y1="132.015" x2="9.724" y2="139.231"/><line x1="18.649" y1="130.481" x2="15.344" y2="137.696"/></g><g stroke="#F1C40D" stroke-width="2.835" stroke-miterlimit="10" fill="none"><line x1="7.323" y1="130.234" x2="139.551" y2="94.129"/><line x1="7.323" y1="130.234" x2=".81" y2="125.699"/><line x1="12.944" y1="128.7" x2="6.429" y2="124.165"/><line x1="18.563" y1="127.165" x2="12.049" y2="122.63"/><line x1="7.41" y1="130.549" x2="4.104" y2="137.765"/><line x1="13.03" y1="129.015" x2="9.724" y2="136.231"/><line x1="18.649" y1="127.481" x2="15.344" y2="134.696"/></g></svg>