<svg version="1.1" xmlns="http://www.w3.org/2000/svg" x="0px" y="0px" width="156.363px" height="75.509px" viewBox="0 0 156.363 75.509" enable-background="new 0 0 156.363 75.509" xml:space="preserve">
<g>
	<path fill="#B3B3B3" d="M85.654,32.548c-4.897,2.469-4.67,9.247-5.782,8.122c-1.112-1.126,0.473-7.509,0.473-7.509
		C60.917,42.004,49.52,58.406,49.52,58.406C140.742,36.869,155.829,0,155.829,0C141.343,10.773,90.552,30.077,85.654,32.548z"/>
	<path fill="#B3B3B3" d="M153.817,15.898c-1.438,2.253-5.31,4-5.31,4c0.514,0.691,4.413-0.629,4.413-0.629
		c-3.251,14.172-20.555,20.578-20.555,20.578c-16.78,32.571-83.422,23.041-83.422,23.041c27.062-6.322,53.004-18.077,53.004-18.077
		c16.376,3.397,26.253-3.539,26.253-3.539c-12.082,3.479-24.994,3.024-24.994,3.024C144.719,23.325,156.256,0,156.256,0
		C156.786,2.16,155.259,13.646,153.817,15.898z"/>
	<path fill="#B3B3B3" d="M22.14,69.537c0,0,6.272-0.542,14.438,3.354c8.164,3.893,2.076-0.601,2.076-0.601
		c-7.758-6.113,0.501-2.033,0.501-2.033c13.724,8.181,16.903,4.362,16.903,4.362c-4.596,0.6-8.607-4.946-8.951-6.288
		c-0.344-1.339,1.355-0.884,1.355-0.884c14.851,5.51,25.504-1.782,25.504-1.782c-8.306,1.94-26.143-2.412-26.143-2.412
		C47.398,63.436,22.14,69.537,22.14,69.537z"/>
	<path fill="#B3B3B3" d="M54.885,48.726c0,0-5.6,6.195-6.186,9.857l-18.655,4.271c0,0,2.147-5.393,2.446-5.853
		c0.3-0.459,3.611-5.029,9.197-6.625c0,0,2.964-1.062,0.205,1.452c-2.759,2.514-7.335,9.49,3.547,1.353
		c9.09-6.797,9.444-4.195,9.444-4.195"/>
	<path fill="#B3B3B3" d="M83.646,49.285c-0.335,0.112-0.671,0.223-1.005,0.334c0,0-33.981,11.467-75.997,18.333
		C-0.124,69.058,0,72.817,0,72.817c46.732-7.521,84.585-21.384,84.585-21.384"/>
	<path fill="#B3B3B3" d="M83.646,49.285c31.926-11.538,45.919-22.283,45.919-22.283s-12.06,11.687-44.98,24.432"/>
</g>
</svg>
