<?xml version="1.0" encoding="utf-8"?>
<!-- Generator: Adobe Illustrator 16.2.0, SVG Export Plug-In . SVG Version: 6.00 Build 0)  -->
<!DOCTYPE svg PUBLIC "-//W3C//DTD SVG 1.1//EN" "http://www.w3.org/Graphics/SVG/1.1/DTD/svg11.dtd">
<svg version="1.1" id="Layer_1" xmlns="http://www.w3.org/2000/svg" xmlns:xlink="http://www.w3.org/1999/xlink" x="0px" y="0px"
	 width="100px" height="100px" viewBox="0 0 100 100" enable-background="new 0 0 100 100" xml:space="preserve">
<g>
	<path fill="#61BA96" d="M23,12.945c-5.5,0-10,4.5-10,10v54c0,5.5,4.5,10,10,10h54c5.5,0,10-4.5,10-10v-54c0-5.5-4.5-10-10-10H23z
		 M32.634,55.195c-2.899,0-5.25-2.35-5.25-5.25c0-2.899,2.351-5.25,5.25-5.25s5.25,2.351,5.25,5.25
		C37.884,52.846,35.533,55.195,32.634,55.195z M50,55.195c-2.9,0-5.25-2.35-5.25-5.25c0-2.899,2.35-5.25,5.25-5.25
		c2.899,0,5.25,2.351,5.25,5.25C55.25,52.846,52.899,55.195,50,55.195z M67.365,55.195c-2.899,0-5.25-2.35-5.25-5.25
		c0-2.899,2.351-5.25,5.25-5.25c2.898,0,5.25,2.351,5.25,5.25C72.615,52.846,70.264,55.195,67.365,55.195z"/>
</g>
</svg>
