<svg version="1.1" xmlns="http://www.w3.org/2000/svg" x="0px" y="0px"
	 width="71.55px" height="98.503px" viewBox="0 0 71.55 98.503" enable-background="new 0 0 71.55 98.503" xml:space="preserve">
<g>
	<path fill="#B3B3B3" d="M52.521,50.357c2.048-0.473,3.768-1.58,4.059-3.954c0.768-6.263,0.46-15.918,0.23-18.589
		c-0.059-0.684-0.146-1.542-0.145-2.442c0.008-3.84,1.768-6.207,6.094-6.207c6.449,0,9.148,1.968,8.369,6.5
		c-0.686,3.973-0.949,10.949-0.227,18.561c0.406,4.287,1.259,8.752-0.057,12.984c-1.283,4.129-4.613,7.472-12.078,8.435
		c1.229,1.84,2.881,5.208,2.691,9.83c-0.187,4.509-1.449,6.513-1.963,7.146c0.689,3.037,1.674,9.729-1.402,11.72
		c-4.463,2.885-11.107,3.991-16.48,3.104l-0.232,0.273c-7.742,0.97-16.078,1.349-20.182-0.687c-0.062,0.104-0.17,0.182-0.324,0.217
		c0,0-2.427,0.533-5.824,0.438c-3.379-0.099-7.76-0.815-11.672-3.349c-3.076-1.986-2.093-8.682-1.402-11.717
		c-1.438-1.779-1.875-5.053-1.961-7.146c-0.188-4.546,1.41-7.88,2.63-9.735c-0.867-1.998-1.464-4.035-1.666-6.046
		c-0.63-6.237,4.584-11.385,9.579-14.073v-0.584v-3.102c-0.91-0.859-6.067-6.253-3.875-16.248c1.83-8.345,2.061-14.798,2.324-16.277
		c1.181-6.629,4.071-8.949,7.203-9.346c2.864-0.363,5.769,0.842,7.659,3.546c1.417,2.028,2.275,4.06,3.261,5.586
		c0.938,1.453,1.914,2.308,3.592,2.308c1.68,0,2.656-0.854,3.598-2.308c0.986-1.526,1.848-3.558,3.266-5.585
		c1.889-2.705,4.793-3.908,7.657-3.546c3.132,0.396,6.021,2.716,7.202,9.345c0.264,1.48,0.494,7.934,2.325,16.278
		C57,35.85,51.634,41.247,50.856,41.967c0.036,0.112,0.039,2.052,0.039,2.151v1.5c0.448,0.237,1.389,0.762,2.469,1.523
		c0.211,0.148,0.269,0.475,0.127,0.691c0,0-0.295,0.451-0.685,1.621C52.707,49.749,52.612,50.05,52.521,50.357L52.521,50.357z
		 M57.291,64.788c9.734-0.812,13.659-5.244,13.209-14.297c-0.111-2.211-0.426-4.353-0.6-6.173
		c-0.729-7.672-0.467-14.741,0.236-18.827c0.605-3.524-1.075-5.322-7.377-5.322c-3.754,0-5.08,1.92-5.088,5.203
		c-0.002,0.869,0.084,1.694,0.141,2.354c0.232,2.702,0.543,12.465-0.233,18.798c-0.198,1.628-0.948,2.757-1.954,3.53
		c0.024,0.066,0.533,1.839,0.82,4.439c0.285,2.588,0.348,6.047-0.538,9.395l-0.103,0.277L57.291,64.788L57.291,64.788z
		 M11.371,41.312c5.551,1.77,12.215,2.799,19.387,2.799c7.142,0,13.775-1.023,19.32-2.779c0.285-0.399,0.801-0.852,0.898-0.973
		c3.312-4.018,3.906-9.456,2.81-14.457c-1.835-8.365-2.067-14.834-2.332-16.318c-1.133-6.362-3.792-8.199-6.339-8.521
		c-2.484-0.314-5.025,0.719-6.707,3.125c-1.41,2.016-2.264,4.038-3.244,5.555c-1.027,1.59-2.273,2.769-4.441,2.769
		s-3.412-1.179-4.438-2.769c-0.979-1.518-1.831-3.539-3.239-5.555c-1.682-2.406-4.224-3.439-6.709-3.125
		c-2.545,0.322-5.205,2.16-6.338,8.521C9.734,11.066,9.5,17.536,7.666,25.901c-1.098,5.001-0.503,10.439,2.809,14.457
		c0.506,0.615,0.865,0.924,0.865,0.924L11.371,41.312L11.371,41.312z M57.811,83.739c0,0-1.913,0.67-4.63,1.12
		c-2.062,0.341-4.617,0.562-7.16,0.245c0.023,0.289,0.014,0.438,0.014,0.438s-0.318,3.746-2.253,8.595
		c-0.335,0.839-0.835,1.612-1.412,2.369c0.989,0.114,2.39,0.222,4.024,0.174c3.275-0.095,7.451-0.792,11.154-3.187
		c2.568-1.662,1.531-8.399,0.91-10.89c-0.061-0.241,0.848-1.585,0.947-1.819c1.947-4.444,1.154-10.694-1.525-14.653l-5.209-2.183
		c-0.484-0.201-1.309-2.332-1.437-2.707c-1.308-3.842-0.646-8.326,0.61-12.102c0.225-0.67,0.424-1.132,0.566-1.432
		c-1.266-0.854-2.244-1.332-2.244-1.332c-0.057-0.026-0.129-0.111-0.187-0.203c-4.233,1.332-9.097,2.236-14.335,2.587
		c-0.176-0.382-0.439-0.72-0.778-1.015c-0.625-0.541-1.373-0.817-2.2-0.817c-0.759,0-1.414,0.237-1.949,0.674
		c-0.535-0.44-1.192-0.679-1.953-0.679c-0.827,0-1.575,0.275-2.2,0.816c-0.339,0.295-0.603,0.633-0.78,1.017
		c-5.24-0.356-10.105-1.269-14.33-2.604c-0.136,0.153-0.39,0.311-0.682,0.49c-0.465,0.285-1.016,0.613-1.064,0.645
		c-4.123,2.631-8.275,6.938-7.734,12.307C2.651,66.294,7.945,73.314,13.4,77.228c3.602,1.582,13.818-9.521,8.615-11.896
		c-4.1-1.871-9.674-5.438-10.402-10.481c-0.107-0.74-0.043-1.174-0.043-1.174c0.09-0.665,1.087-0.53,0.998,0.135
		c0,0-0.041,0.332,0.041,0.896c0.671,4.648,6.119,8.021,9.824,9.711c1.257,0.574,1.878,1.474,2.027,2.545
		c4.201,0.724,12.311,2.986,16.256,7.884c3.553,4.401,4.734,7.521,5.127,9.216c3.737,0.512,8.312-0.111,11.631-1.271
		C58.113,82.565,58.445,83.516,57.811,83.739L57.811,83.739z M4.542,82.788c0.004,0,4.139,1.442,8.789,1.461
		c-0.679-3.037-0.779-5.551-0.791-6.402c-3.631-2.646-7.17-6.66-9.373-11.051c-2.334,3.951-2.947,9.783-1.104,13.988
		c0.272,0.621,0.539,1.069,1.019,1.536c-0.576,2.306-1.867,9.421,0.84,11.171c4.381,2.832,11.008,3.854,16.207,2.879l-0.099-0.08
		c-3.621-2.963-5.493-7.293-6.46-11.049c-3.23,0.027-6.678-0.562-9.361-1.505C3.576,83.516,3.909,82.565,4.542,82.788L4.542,82.788z
		 M54.882,63.782l0.064-0.195c1.004-3.811,0.855-9.086-0.205-12.971c-0.785,0.414-1.658,0.674-2.518,0.83
		c-0.959,3.834-1.162,8.327,0.974,11.631L54.882,63.782L54.882,63.782z M30.427,89.907l0.66,0.733
		c0.59-0.629,1.396-1.405,2.42-2.327c1.025-0.923,1.883-1.645,2.567-2.165l-0.659-0.731c-0.596,0.635-1.404,1.412-2.426,2.33
		C31.968,88.667,31.115,89.387,30.427,89.907L30.427,89.907z M33.472,92.53c0.557,1.354,0.404,2.709-0.457,4.062
		c0.396-0.023,0.841,0.086,1.332,0.332c0.664-1.704,0.644-3.253-0.065-4.642l0.575-0.168c0.214,0.569,0.512,1.069,0.896,1.496
		c0.385,0.428,0.73,0.682,1.039,0.762c0.307,0.076,0.649,0.045,1.028-0.098c0.377-0.145,0.802-0.392,1.272-0.742
		c-0.241-0.336-0.399-0.729-0.474-1.178c-0.172,0.204-0.336,0.376-0.491,0.518c-0.3,0.271-0.582,0.42-0.851,0.459
		s-0.549-0.105-0.847-0.438c-0.295-0.329-0.521-0.652-0.672-0.971c1.998,0.131,4.188-0.478,6.565-1.819
		c-0.223-0.328-0.317-0.694-0.291-1.101c-1.278,0.844-2.43,1.427-3.448,1.748c-1.02,0.322-2.045,0.427-3.082,0.313
		c-0.029-0.171-0.05-0.354-0.058-0.557c1.521,0.065,3.375-0.482,5.558-1.648c-0.121-0.282-0.168-0.614-0.143-0.998
		c-1.941,1.283-3.734,1.913-5.376,1.894l0.056-0.31c1.449-0.396,2.778-0.965,3.988-1.711c-0.137-0.368-0.188-0.761-0.15-1.172
		c-1.371,1.085-2.774,1.812-4.218,2.177c1.337-1.191,2.429-2.121,3.278-2.787l-0.696-0.774c-0.889,0.911-2.19,2.14-3.909,3.687
		c-1.716,1.547-3.07,2.709-4.062,3.492l0.696,0.771c0.828-0.854,2.019-1.98,3.574-3.381c0.17-0.018,0.398-0.054,0.693-0.109
		c-0.145,0.595-0.17,1.166-0.084,1.716c-1.635,0.392-2.583,0.569-2.848,0.537c-0.01,0.426-0.057,0.838-0.143,1.233
		c-0.009,0.059,0.006,0.105,0.041,0.146c0.073,0.081,0.165,0.074,0.271-0.022C32.237,93.016,32.735,92.776,33.472,92.53
		L33.472,92.53z M25.329,76.382l-1.265-1.404c1.255-1.132,2.273-2.005,3.057-2.624l-0.834-0.926
		c-0.869,0.93-2.326,2.313-4.369,4.155c-2.043,1.84-3.49,3.067-4.345,3.688l0.834,0.927c0.521-0.554,1.542-1.518,3.062-2.885
		l1.266,1.404c-0.903,0.812-1.698,1.484-2.387,2.021c0.311,0.26,0.676,0.627,1.098,1.094l2.2,2.442
		c0.837,0.931,1.561,1.798,2.173,2.597l0.926-0.832l-0.66-0.733l5.426-4.888l0.816,0.908l0.906-0.815
		c-0.824-0.808-1.659-1.679-2.501-2.615l-2.2-2.444c-0.342-0.379-0.667-0.778-0.975-1.203C26.96,74.87,26.216,75.581,25.329,76.382
		L25.329,76.382z M33.647,85.314l-0.568-0.633c1.044-0.915,1.886-1.618,2.526-2.108l-0.688-0.764
		c-0.496,0.543-1.285,1.305-2.373,2.282c-0.279-0.325-0.486-0.589-0.619-0.789c-0.193,0.248-0.459,0.524-0.799,0.831
		c-0.062,0.055-0.074,0.101-0.041,0.138s0.088,0.044,0.164,0.019c0.075-0.021,0.133-0.029,0.176-0.021
		c0.041,0.015,0.088,0.05,0.144,0.108l0.293,0.328L30,86.383c-0.306-0.353-0.521-0.632-0.646-0.839
		c-0.104,0.117-0.24,0.254-0.409,0.404l-0.447,0.385c-0.055,0.05-0.066,0.092-0.035,0.123c0.03,0.035,0.099,0.043,0.203,0.021
		c0.104-0.021,0.211,0.031,0.321,0.151l0.331,0.367c-1.209,1.088-2.122,1.859-2.741,2.319l0.688,0.765
		c0.603-0.653,1.465-1.483,2.584-2.494l0.568,0.633c-1.31,1.181-2.125,1.878-2.447,2.094l1.303,1.444l0.783-0.706l-0.725-0.805
		l6.443-5.803l0.707,0.783l0.781-0.705l-1.281-1.426C35.593,83.523,34.814,84.263,33.647,85.314L33.647,85.314z M60.425,27.778
		c0,0,0.041-0.066,0.097-0.226c0.528-1.521,0.202-4.349-0.013-5.748c-0.051-0.332,0.446-0.408,0.498-0.076
		c0.146,0.952,0.647,5.149-0.162,6.326C60.662,28.335,60.242,28.059,60.425,27.778L60.425,27.778z M63.718,27.778
		c0,0,0.043-0.066,0.098-0.226c0.531-1.521,0.203-4.349-0.012-5.748c-0.051-0.332,0.445-0.408,0.498-0.076
		c0.146,0.952,0.646,5.149-0.162,6.326C63.957,28.335,63.535,28.059,63.718,27.778L63.718,27.778z M67.054,27.73
		c0.729-0.997,0.227-4.708,0.111-5.46c-0.053-0.332,0.445-0.406,0.496-0.076c0.088,0.572,0.692,5.104-0.27,5.908
		C67.147,28.329,66.808,27.958,67.054,27.73L67.054,27.73z M67.519,58.364v0.82c-0.85-0.059-2.09-0.088-3.719-0.088
		c-1.631,0-2.869,0.029-3.721,0.088v-0.82c0.785,0.069,2.027,0.104,3.725,0.104S66.74,58.434,67.519,58.364L67.519,58.364z
		 M65.408,55.189l-0.717,0.112c-0.182,0.029-0.393,0.081-0.637,0.156c-0.076-0.254-0.178-0.465-0.308-0.627
		c0.228-0.109,0.466-0.408,0.712-0.895c0.246-0.484,0.541-1.213,0.879-2.186c0.383,0.188,0.64,0.3,0.768,0.338
		c0.129,0.035,0.191,0.07,0.191,0.1c0,0.03-0.037,0.061-0.113,0.088c-0.075,0.029-0.217,0.196-0.424,0.501
		c-0.205,0.308-0.586,0.94-1.141,1.901l1.217-0.09c0.424-0.615,0.654-1,0.695-1.152c0.311,0.24,0.52,0.38,0.624,0.421
		c0.106,0.04,0.163,0.076,0.163,0.108c0,0.031-0.036,0.059-0.105,0.076c-0.068,0.021-0.263,0.215-0.574,0.578l-1.711,2.101
		c0.721,0.028,1.475-0.013,2.261-0.122c-0.007,0.104-0.009,0.21-0.009,0.318c0,0.107,0.009,0.229,0.023,0.361h-1.979
		c-0.391,0-0.746,0.036-1.066,0.111c-0.029-0.249-0.093-0.484-0.191-0.704C64.222,56.643,64.703,56.142,65.408,55.189L65.408,55.189
		z M62.038,55.067l-1.03,0.166c-0.19,0.034-0.391,0.09-0.594,0.164c-0.035-0.227-0.107-0.454-0.219-0.688
		c0.221-0.156,0.482-0.518,0.785-1.077c0.303-0.562,0.58-1.224,0.83-1.982c0.285,0.203,0.498,0.329,0.641,0.375
		c0.145,0.046,0.215,0.084,0.215,0.114c-0.234,0.125-0.75,0.915-1.642,2.451l1.371-0.069c0.163-0.297,0.317-0.631,0.463-1.003
		c0.308,0.232,0.546,0.372,0.716,0.419c0.076,0.028,0.113,0.063,0.113,0.104c-0.152,0.104-0.232,0.166-0.332,0.272
		c-0.1,0.108-0.32,0.396-0.663,0.86l-1.136,1.554l1.904-0.13c-0.041,0.259-0.055,0.479-0.035,0.654l-1.711,0.07
		c-0.188,0.006-0.4,0.026-0.645,0.063c-0.241,0.038-0.408,0.073-0.501,0.108c0-0.273-0.065-0.498-0.201-0.672
		c0.298-0.121,0.554-0.306,0.771-0.551C61.353,56.036,61.653,55.632,62.038,55.067L62.038,55.067z M61.985,43.935h3.78V43.22h-3.78
		V43.935L61.985,43.935z M61.985,42.714h3.78v-0.717h-3.78V42.714L61.985,42.714z M66.335,45.69h-0.76
		c-0.775,1.684-2.32,2.817-4.633,3.404c-0.105-0.278-0.268-0.514-0.488-0.705c1.049-0.156,1.959-0.475,2.734-0.954
		c0.775-0.478,1.322-1.062,1.645-1.745h-0.91c-0.312,0.465-0.709,0.858-1.185,1.186c-0.476,0.324-1.085,0.631-1.831,0.923
		c-0.082-0.228-0.232-0.418-0.453-0.575c1.281-0.372,2.191-0.882,2.734-1.533h-1.182c-0.412,0.35-0.854,0.646-1.318,0.891
		c-0.11-0.209-0.299-0.383-0.567-0.523c0.949-0.402,1.765-0.934,2.446-1.598c-0.623,0-1.084,0.012-1.381,0.033
		c0.055-0.146,0.082-0.347,0.082-0.604v-1.848c0-0.262-0.026-0.467-0.078-0.612c0.359,0.028,1.254,0.043,2.68,0.043
		s2.324-0.015,2.697-0.043c-0.059,0.134-0.088,0.339-0.088,0.612v1.848c0,0.257,0.033,0.458,0.101,0.604
		c-0.723-0.041-1.81-0.052-3.261-0.033l-0.734,0.707h2.701c0.875,0,1.501-0.021,1.879-0.062l-0.428,2.479
		c-0.059,0.35-0.15,0.61-0.279,0.789s-0.328,0.312-0.6,0.402c-0.27,0.09-0.671,0.155-1.201,0.196
		c-0.029-0.296-0.141-0.608-0.332-0.94c0.273,0.059,0.512,0.088,0.717,0.088c0.561,0,0.883-0.229,0.971-0.688L66.335,45.69
		L66.335,45.69z M65.294,33.462c0.319-0.372,0.613-0.829,0.881-1.37h-1.729C64.691,32.69,64.972,33.147,65.294,33.462L65.294,33.462
		z M64.386,35.811v1.406h1.754v-1.406H64.386L64.386,35.811z M65.285,34.216c-0.482,0.371-0.992,0.693-1.527,0.967
		c0.359,0.041,0.92,0.061,1.676,0.061c0.759,0,1.236-0.022,1.441-0.069c-0.041,0.169-0.062,0.401-0.062,0.698v1.449
		c0,0.391,0.026,0.762,0.079,1.117H66.14v-0.646h-1.754v0.787h-0.752c0.06-0.391,0.088-0.761,0.088-1.108v-1.599
		c0-0.14-0.019-0.354-0.053-0.646c-0.086,0.052-0.175,0.097-0.263,0.131c-0.14-0.215-0.312-0.405-0.515-0.567
		c0.716-0.181,1.384-0.5,2.007-0.959c-0.269-0.311-0.506-0.715-0.716-1.215c-0.182,0.373-0.357,0.695-0.532,0.969
		c-0.183-0.127-0.388-0.217-0.619-0.271c0.291-0.366,0.556-0.797,0.794-1.292s0.401-0.947,0.489-1.361
		c0.278,0.063,0.498,0.102,0.653,0.109c0.156,0.01,0.234,0.028,0.234,0.059c0,0.027-0.027,0.066-0.087,0.113
		c-0.14,0.129-0.284,0.338-0.437,0.625h2.442c-0.331,0.871-0.79,1.62-1.379,2.247c0.494,0.291,1.164,0.485,2.009,0.584
		c-0.181,0.272-0.316,0.552-0.41,0.835C66.501,34.967,65.814,34.628,65.285,34.216L65.285,34.216z M62.263,31.899h-1.274v1.458
		h1.274V31.899L62.263,31.899z M61.523,37.163v-3.246c-0.449,0.004-0.857,0.024-1.223,0.061c0.041-0.425,0.061-0.906,0.061-1.445
		c0-0.537-0.02-0.962-0.061-1.27c0.33,0.052,0.764,0.079,1.295,0.079c0.533,0,0.992-0.026,1.375-0.079
		c-0.041,0.396-0.062,0.842-0.062,1.34s0.021,0.959,0.062,1.384c-0.203-0.034-0.488-0.055-0.854-0.061v1.039
		c0.36-0.007,0.626-0.026,0.794-0.062v0.63c-0.128-0.037-0.393-0.057-0.794-0.062v1.554c0.448-0.117,0.806-0.218,1.073-0.306
		c-0.023,0.123-0.034,0.248-0.034,0.375s0.003,0.229,0.009,0.306c-0.529,0.11-1.115,0.264-1.755,0.458
		c-0.641,0.195-1.077,0.354-1.31,0.476c-0.041-0.256-0.119-0.543-0.236-0.863c0.082-0.006,0.229-0.027,0.438-0.062v-1.554
		c0-0.442-0.018-0.803-0.053-1.083c0.232,0.047,0.491,0.07,0.776,0.07c0.075,0,0.114,0.015,0.114,0.044
		c-0.131,0.124-0.174,0.171-0.205,0.235c-0.032,0.063-0.049,0.119-0.049,0.166v2.018L61.523,37.163L61.523,37.163z M20.181,22.178
		c1.918,0.208,3.705,1.812,4.897,3.288c0,0-1.797,3.562-5.146,3.562c-2.213,0-4.332-1.327-5.2-3.325
		c-0.823,0.776-1.742,1.41-3.106,1.455C10.367,27.2,9.72,25.87,9.72,25.87s1.58,2.381,4.858-0.568
		C15.167,24.747,16.941,21.823,20.181,22.178L20.181,22.178z M21.02,22.995c1.057,0.455,1.797,1.506,1.797,2.729
		c0,1.255-0.779,2.328-1.879,2.762c1.659-0.342,3.028-1.497,3.808-3.021C23.822,24.344,22.462,23.368,21.02,22.995L21.02,22.995z
		 M16.878,25.726c0-1.369,0.926-2.521,2.186-2.865c-1.93,0.21-2.926,1.448-4.08,2.596c0.738,1.485,2.068,2.596,3.662,2.984
		C17.605,27.979,16.878,26.937,16.878,25.726L16.878,25.726z M19.964,24.997c0,0.509,0.412,0.92,0.92,0.92s0.92-0.411,0.92-0.92
		c0-0.508-0.412-0.92-0.92-0.92S19.964,24.489,19.964,24.997L19.964,24.997z M30.732,34.686c-0.878-0.019-2.229-1.467-2.229-2.483
		c0-0.775,0.994-1.406,2.223-1.406c1.238,0,2.234,0.631,2.234,1.406C32.96,33.219,31.61,34.667,30.732,34.686L30.732,34.686z
		 M25.636,39.187c0.836,0.245,3.539,0.491,5.096-2.014c1.557,2.504,4.258,2.258,5.096,2.014c-0.617,0.588-1.229,0.857-2.525,0.689
		c-0.75-0.096-1.95-0.623-2.569-1.295c-0.62,0.672-1.82,1.199-2.57,1.295C26.863,40.044,26.253,39.774,25.636,39.187L25.636,39.187z
		 M27.05,36.473l0.127-0.002c0.153-0.004,0.172,0.206,0.045,0.245C8.378,41.593,8.21,29.405,9.033,24.346
		c1.339-8.235,8.246-10.558,14.174-8.433c1.135,0.408,2.064,1.037,2.812,1.823c0,0,0.107,0.218-0.146,0.244
		c-0.3,0.031-0.545-0.244-0.545-0.244c-0.668-0.596-1.46-1.077-2.385-1.409c-5.811-2.084-12.467,0.024-13.775,8.073
		C8.38,29.243,8.984,40.145,25.44,36.829c-2.122,0.242-4.483,0.002-6.315-0.644c-3.441-1.208-5.797-3.953-6.992-6.388
		c-0.072-0.15,4.022,7.541,12.969,6.791c-3.438-0.41-6.432-2.377-7.682-5.577c-0.061-0.156,2.524,5.417,9.604,5.461H27.05
		L27.05,36.473z M34.413,36.473c7.106-0.043,9.692-5.617,9.632-5.46c-1.25,3.199-4.242,5.167-7.682,5.577
		c8.945,0.75,13.042-6.941,12.969-6.791c-1.195,2.435-3.551,5.18-6.99,6.388c-1.834,0.645-4.193,0.887-6.315,0.645
		c16.456,3.314,17.062-7.586,16.272-12.43c-1.31-8.049-7.967-10.158-13.775-8.074c-0.926,0.334-1.719,0.814-2.387,1.41
		c0,0-0.242,0.275-0.545,0.244c-0.254-0.027-0.146-0.244-0.146-0.244c0.747-0.787,1.679-1.416,2.812-1.822
		c5.929-2.127,12.834,0.195,14.174,8.432c0.822,5.059,0.654,17.247-18.189,12.37c-0.126-0.039-0.107-0.25,0.045-0.245L34.413,36.473
		L34.413,36.473z M41.282,22.178c3.241-0.354,5.015,2.569,5.603,3.124c3.281,2.949,4.858,0.568,4.858,0.568s-0.646,1.33-1.905,1.287
		c-1.365-0.045-2.283-0.679-3.104-1.455c-0.868,2-2.988,3.325-5.2,3.325c-3.35,0-5.146-3.562-5.146-3.562
		C37.578,23.989,39.365,22.386,41.282,22.178L41.282,22.178z M42.402,22.86c1.259,0.344,2.186,1.496,2.186,2.865
		c0,1.211-0.727,2.253-1.767,2.715c1.593-0.39,2.921-1.5,3.659-2.984C45.325,24.309,44.332,23.071,42.402,22.86L42.402,22.86z
		 M38.648,25.726c0-1.225,0.74-2.275,1.799-2.73c-1.445,0.373-2.805,1.349-3.729,2.471c0.778,1.525,2.147,2.681,3.811,3.023
		C39.427,28.055,38.648,26.979,38.648,25.726L38.648,25.726z M41.734,24.997c0,0.509,0.412,0.92,0.92,0.92s0.922-0.411,0.922-0.92
		c0-0.508-0.414-0.92-0.922-0.92S41.734,24.489,41.734,24.997L41.734,24.997z M36.009,11.179c0.146-0.203,0.289-0.409,0.424-0.618
		c0.975-1.504,1.816-3.511,3.215-5.51c1.367-1.957,3.363-2.735,5.279-2.492c1.668,0.21,3.979,1.325,5.043,7.29
		c0.121,0.686,0.238,2.432,0.508,4.936C46.873,12.981,41.804,11.681,36.009,11.179L36.009,11.179z M10.986,14.719
		c0.266-2.47,0.38-4.191,0.5-4.87c1.062-5.965,3.374-7.079,5.042-7.29c1.917-0.243,3.914,0.535,5.28,2.492
		c1.398,1.998,2.238,4.004,3.209,5.508c0.134,0.206,0.273,0.41,0.42,0.61C19.664,11.657,14.607,12.938,10.986,14.719L10.986,14.719z
		 M47.505,89.271c0.088,0.854,0.127,1.976,0.061,3.438c-0.018,0.336-0.521,0.312-0.503-0.022c0.065-1.433,0.028-2.526-0.058-3.362
		C46.97,88.991,47.47,88.939,47.505,89.271L47.505,89.271z M51.203,88.97c0.088,0.854,0.127,1.977,0.059,3.438
		c-0.018,0.334-0.52,0.312-0.504-0.022c0.068-1.433,0.031-2.526-0.056-3.362C50.667,88.687,51.167,88.637,51.203,88.97L51.203,88.97
		z M55.042,87.732c0.088,0.853,0.125,1.976,0.057,3.438c-0.016,0.334-0.518,0.312-0.502-0.023c0.066-1.432,0.029-2.527-0.057-3.363
		C54.507,87.45,55.007,87.398,55.042,87.732L55.042,87.732z M46.773,94.954c-0.018,0.522-0.75,0.924-1.635,0.894
		c-0.887-0.031-1.588-0.479-1.57-1.006c0.018-0.521,0.75-0.923,1.637-0.892C46.089,93.981,46.792,94.432,46.773,94.954
		L46.773,94.954z M51.037,94.372c0.082,0.517-0.561,1.049-1.436,1.187c-0.875,0.14-1.65-0.168-1.732-0.685
		c-0.082-0.519,0.561-1.049,1.436-1.188C50.179,93.549,50.955,93.854,51.037,94.372L51.037,94.372z M54.941,93.206
		c0.152,0.5-0.409,1.114-1.258,1.373c-0.846,0.261-1.656,0.062-1.812-0.438c-0.151-0.5,0.409-1.117,1.259-1.376
		C53.976,92.508,54.787,92.704,54.941,93.206L54.941,93.206z M58.115,91.021c0.314,0.419-0.002,1.189-0.711,1.723
		c-0.707,0.533-1.535,0.627-1.85,0.209c-0.316-0.418,0.002-1.188,0.709-1.724S57.8,90.603,58.115,91.021L58.115,91.021z
		 M44.335,76.721c0,0,0.514-1.962,1.66-4.466c1.137-2.487,2.918-5.553,5.479-7.748c0.51-0.438,1.164,0.326,0.654,0.764
		c-3.125,2.684-5.769,7.708-6.816,11.704C45.14,77.622,44.166,77.37,44.335,76.721L44.335,76.721z M34.906,49.978
		c0,1.174-0.734,2.371-2.207,3.594c-0.581,0.48-1.24,0.94-1.979,1.381c-0.738-0.443-1.397-0.906-1.979-1.388
		c-1.472-1.221-2.208-2.42-2.208-3.595c0-0.58,0.231-1.069,0.693-1.471c0.44-0.381,0.954-0.57,1.542-0.57
		c0.854,0,1.504,0.418,1.951,1.257c0.447-0.833,1.097-1.251,1.951-1.251c0.586,0,1.1,0.191,1.541,0.572
		C34.675,48.907,34.906,49.396,34.906,49.978L34.906,49.978z M17.579,65.847c0.606,0.604,1.441,1.327,2.589,2.168
		c0.271,0.197-0.027,0.604-0.299,0.406c-1.164-0.854-2.02-1.594-2.645-2.217C16.987,65.969,17.341,65.611,17.579,65.847
		L17.579,65.847z M22.199,66.681c0.434,0.143,0.592,0.85,0.354,1.584c-0.237,0.734-0.782,1.214-1.217,1.072
		c-0.434-0.142-0.592-0.848-0.354-1.584C21.22,67.021,21.765,66.538,22.199,66.681L22.199,66.681z M21.015,69.833
		c0.359,0.283,0.266,1.002-0.209,1.608c-0.476,0.608-1.151,0.874-1.512,0.595c-0.358-0.279-0.266-1.002,0.209-1.609
		C19.98,69.819,20.656,69.555,21.015,69.833L21.015,69.833z M18.808,72.61c0.318,0.328,0.125,1.029-0.43,1.565
		c-0.556,0.534-1.263,0.704-1.58,0.377c-0.316-0.329-0.123-1.029,0.433-1.565C17.785,72.452,18.492,72.284,18.808,72.61
		L18.808,72.61z M16.234,75.03c0.186,0.418-0.234,1.01-0.941,1.323c-0.705,0.313-1.427,0.229-1.611-0.185
		c-0.187-0.418,0.234-1.012,0.939-1.324C15.326,74.53,16.048,74.614,16.234,75.03L16.234,75.03z M15.38,68.525
		c0.606,0.603,1.441,1.326,2.588,2.168c0.271,0.197-0.026,0.604-0.297,0.406c-1.164-0.854-2.019-1.597-2.645-2.218
		C14.789,68.646,15.142,68.288,15.38,68.525L15.38,68.525z M12.782,70.874c0.606,0.602,1.44,1.326,2.588,2.168
		c0.271,0.199-0.026,0.604-0.297,0.403c-1.165-0.854-2.019-1.594-2.646-2.215C12.19,70.997,12.544,70.639,12.782,70.874
		L12.782,70.874z M3.408,91.021c0.314-0.418,1.145-0.324,1.852,0.208c0.707,0.533,1.024,1.306,0.709,1.724
		c-0.314,0.418-1.143,0.324-1.85-0.209C3.41,92.21,3.091,91.439,3.408,91.021L3.408,91.021z M6.581,93.206
		c0.153-0.502,0.964-0.698,1.812-0.439c0.847,0.259,1.408,0.876,1.256,1.376c-0.153,0.501-0.965,0.697-1.811,0.438
		C6.991,94.321,6.427,93.706,6.581,93.206L6.581,93.206z M10.486,94.372c0.082-0.52,0.857-0.823,1.732-0.688
		c0.873,0.142,1.517,0.671,1.435,1.188c-0.081,0.518-0.856,0.823-1.731,0.686C11.046,95.421,10.404,94.889,10.486,94.372
		L10.486,94.372z M14.75,94.954c-0.02-0.521,0.684-0.974,1.568-1.004c0.886-0.031,1.618,0.368,1.636,0.892
		c0.019,0.522-0.685,0.975-1.569,1.006C15.5,95.878,14.767,95.478,14.75,94.954L14.75,94.954z M7.001,87.784
		c-0.086,0.836-0.123,1.934-0.056,3.363c0.017,0.335-0.487,0.357-0.502,0.023c-0.069-1.465-0.031-2.586,0.058-3.438
		C6.536,87.398,7.036,87.45,7.001,87.784L7.001,87.784z M14.537,89.325c-0.086,0.836-0.123,1.933-0.055,3.362
		c0.016,0.336-0.487,0.358-0.503,0.022c-0.069-1.463-0.03-2.584,0.058-3.438C14.071,88.939,14.571,88.991,14.537,89.325
		L14.537,89.325z M10.841,89.021c-0.086,0.836-0.123,1.933-0.057,3.362c0.016,0.337-0.486,0.357-0.502,0.023
		c-0.068-1.464-0.031-2.584,0.057-3.438C10.375,88.637,10.875,88.687,10.841,89.021L10.841,89.021z M24.575,77.061l-1.079,0.974
		l-1.265-1.406l1.079-0.973L24.575,77.061L24.575,77.061z M25.962,80.771l-1.834-2.036l1.08-0.972
		c0.606,0.646,1.221,1.121,1.846,1.426s1.418,0.473,2.379,0.503c-0.026-0.37,0.046-0.748,0.214-1.134
		c-0.761,0.07-1.425-0.01-1.996-0.24c-0.569-0.23-1.134-0.642-1.69-1.232l1.404-1.266l3.492,3.879l-5.426,4.887l-3.493-3.879
		l1.425-1.281l1.412,1.566c0.165,0.184,0.244,0.338,0.236,0.467c-0.006,0.129-0.09,0.268-0.25,0.41
		c-0.158,0.145-0.416,0.319-0.769,0.525c0.313,0.159,0.587,0.381,0.818,0.664c0.25-0.201,0.528-0.439,0.838-0.717
		c0.31-0.278,0.5-0.487,0.571-0.625c0.072-0.141,0.086-0.285,0.047-0.438C26.23,81.122,26.126,80.954,25.962,80.771L25.962,80.771z
		 M31.102,87.604l-0.569-0.631l1.864-1.677l0.567,0.632L31.102,87.604L31.102,87.604z"/>
</g>
</svg>
