<?xml version="1.0" encoding="utf-8"?>
<!-- Generator: Adobe Illustrator 16.2.0, SVG Export Plug-In . SVG Version: 6.00 Build 0)  -->
<!DOCTYPE svg PUBLIC "-//W3C//DTD SVG 1.1//EN" "http://www.w3.org/Graphics/SVG/1.1/DTD/svg11.dtd">
<svg version="1.1" id="Layer_1" xmlns="http://www.w3.org/2000/svg" xmlns:xlink="http://www.w3.org/1999/xlink" x="0px" y="0px"
	 width="100px" height="100px" viewBox="0 0 100 100" enable-background="new 0 0 100 100" xml:space="preserve">
<g>
	<path fill="#FFFFFF" d="M6.64,51.455v-1.257l8.405-4.596v1.63l-6.618,3.574v0.039l6.618,3.555v1.649L6.64,51.455z"/>
	<path fill="#FFFFFF" d="M16.285,58.269l6.677-16.378h1.571l-6.677,16.378H16.285z"/>
	<path fill="#FFFFFF" d="M32.724,48.882c-0.177-0.628-0.884-1.218-2.102-1.218c-1.571,0-2.082,0.648-2.082,1.297
		c0,0.805,0.688,1.158,1.61,1.315l1.512,0.255c1.767,0.295,2.769,1.355,2.769,2.828c0,1.944-1.434,3.005-3.869,3.005
		c-2.455,0-3.555-1.218-3.908-2.848h1.571c0.235,0.825,0.883,1.492,2.494,1.492c1.296,0,2.18-0.569,2.18-1.57
		c0-0.864-0.766-1.316-1.866-1.493l-1.355-0.216c-1.493-0.255-2.671-1.139-2.671-2.69c0-1.335,0.982-2.729,3.555-2.729
		c2.297,0,3.358,1.178,3.731,2.572H32.724z"/>
	<path fill="#FFFFFF" d="M44.451,49.059h-1.63c-0.295-0.766-1.041-1.335-2.239-1.335c-1.591,0-2.985,1.178-2.985,3.594
		c0,2.101,1.218,3.613,3.064,3.613c1.198,0,2.022-0.609,2.297-1.513h1.63c-0.452,1.65-1.748,2.927-3.927,2.927
		c-2.573,0-4.635-1.905-4.635-5.047c0-2.789,1.768-4.988,4.556-4.988C42.604,46.31,44.058,47.468,44.451,49.059z"/>
	<path fill="#FFFFFF" d="M49.814,48.804h0.04c0.412-1.61,1.512-2.494,2.984-2.494c0.491,0,0.845,0.078,1.238,0.177V47.9
		c-0.394-0.118-0.786-0.216-1.297-0.216c-1.885,0-2.965,2.081-2.965,4.968v2.043h1.983v1.335h-5.4v-1.335h1.866v-6.736h-1.669
		v-1.335h3.221V48.804z"/>
	<path fill="#FFFFFF" d="M56.906,46.624h4.006v8.071h2.572v1.335H56.71v-1.335h2.651v-6.736h-2.455V46.624z M59.184,42.539h1.926
		v1.826h-1.926V42.539z"/>
	<path fill="#FFFFFF" d="M66.06,46.624h1.552v1.413c0.51-0.863,1.315-1.728,2.69-1.728c2.14,0,3.751,2.081,3.751,5.008
		c0,3.044-1.729,5.027-3.692,5.027c-1.354,0-2.18-0.707-2.749-1.61v5.911H66.06V46.624z M69.928,47.685
		c-1.374,0-2.435,1.473-2.435,3.691c0,2.102,1.159,3.594,2.475,3.594c1.414,0,2.474-1.237,2.474-3.652
		C72.441,48.961,71.382,47.685,69.928,47.685z"/>
	<path fill="#FFFFFF" d="M76,46.624h1.865v-3.005h1.551v3.005h3.613v1.296h-3.613v5.125c0,1.179,0.531,1.787,1.689,1.787
		c0.844,0,1.434-0.196,1.943-0.313v1.276c-0.51,0.137-1.119,0.354-2.18,0.354c-2.454,0-3.004-1.532-3.004-3.319V47.92H76V46.624z"/>
	<path fill="#FFFFFF" d="M85.212,47.232v-1.63l8.405,4.596v1.257l-8.405,4.595V54.4l6.618-3.555v-0.039L85.212,47.232z"/>
</g>
</svg>
