<?xml version="1.0" encoding="utf-8"?>
<!-- Generator: Adobe Illustrator 16.2.0, SVG Export Plug-In . SVG Version: 6.00 Build 0)  -->
<!DOCTYPE svg PUBLIC "-//W3C//DTD SVG 1.1//EN" "http://www.w3.org/Graphics/SVG/1.1/DTD/svg11.dtd">
<svg version="1.1" id="Layer_1" xmlns="http://www.w3.org/2000/svg" xmlns:xlink="http://www.w3.org/1999/xlink" x="0px" y="0px"
	 width="100px" height="100px" viewBox="0 0 100 100" enable-background="new 0 0 100 100" xml:space="preserve">
<g>
	<path fill="#FFFFFF" d="M67.189,69.892H19.836V21.279h47.353V69.892z M22.671,67.058h41.684V24.114H22.671V67.058z"/>
	<g>
		<rect x="75.837" y="76.168" fill="#FFFFFF" width="2.834" height="2.834"/>
		<path fill="#FFFFFF" d="M73.058,79.002h-2.779v-2.834h2.779V79.002z M67.5,79.002h-2.779v-2.834H67.5V79.002z M61.942,79.002
			h-2.779v-2.834h2.779V79.002z M56.385,79.002h-2.779v-2.834h2.779V79.002z M50.827,79.002h-2.779v-2.834h2.779V79.002z
			 M45.269,79.002H42.49v-2.834h2.779V79.002z M39.711,79.002h-2.779v-2.834h2.779V79.002z"/>
		<rect x="31.319" y="76.168" fill="#FFFFFF" width="2.835" height="2.834"/>
		<path fill="#FFFFFF" d="M34.154,73.305h-2.835v-2.863h2.835V73.305z M34.154,67.579h-2.835v-2.863h2.835V67.579z M34.154,61.854
			h-2.835V58.99h2.835V61.854z M34.154,56.127h-2.835v-2.862h2.835V56.127z M34.154,50.401h-2.835v-2.863h2.835V50.401z
			 M34.154,44.676h-2.835v-2.863h2.835V44.676z M34.154,38.95h-2.835v-2.863h2.835V38.95z"/>
		<rect x="31.319" y="30.389" fill="#FFFFFF" width="2.835" height="2.835"/>
		<path fill="#FFFFFF" d="M73.058,33.224h-2.778v-2.835h2.778V33.224z M67.5,33.224h-2.778v-2.835H67.5V33.224z M61.942,33.224
			h-2.779v-2.835h2.779V33.224z M56.385,33.224h-2.779v-2.835h2.779V33.224z M50.827,33.224h-2.779v-2.835h2.779V33.224z
			 M45.269,33.224H42.49v-2.835h2.779V33.224z M39.711,33.224h-2.779v-2.835h2.779V33.224z"/>
		<rect x="75.837" y="30.389" fill="#FFFFFF" width="2.834" height="2.835"/>
		<path fill="#FFFFFF" d="M78.671,73.305h-2.834v-2.863h2.834V73.305z M78.671,67.579h-2.834v-2.863h2.834V67.579z M78.671,61.854
			h-2.834V58.99h2.834V61.854z M78.671,56.127h-2.834v-2.862h2.834V56.127z M78.671,50.401h-2.834v-2.863h2.834V50.401z
			 M78.671,44.676h-2.834v-2.863h2.834V44.676z M78.671,38.95h-2.834v-2.863h2.834V38.95z"/>
	</g>
</g>
</svg>
