<?xml version="1.0" encoding="utf-8"?>
<!-- Generator: Adobe Illustrator 16.2.0, SVG Export Plug-In . SVG Version: 6.00 Build 0)  -->
<!DOCTYPE svg PUBLIC "-//W3C//DTD SVG 1.1//EN" "http://www.w3.org/Graphics/SVG/1.1/DTD/svg11.dtd">
<svg version="1.1" id="Layer_1" xmlns="http://www.w3.org/2000/svg" xmlns:xlink="http://www.w3.org/1999/xlink" x="0px" y="0px"
	 width="100px" height="100px" viewBox="0 0 100 100" enable-background="new 0 0 100 100" xml:space="preserve">
<g>
	<path fill="#FFFFFF" d="M48.254,79.956c-16.548,0-30.011-13.463-30.011-30.012c0-16.548,13.463-30.011,30.011-30.011
		s30.01,13.463,30.01,30.011C78.265,66.493,64.803,79.956,48.254,79.956z M48.254,22.768c-14.985,0-27.176,12.191-27.176,27.176
		s12.191,27.178,27.176,27.178c14.985,0,27.176-12.192,27.176-27.178S63.239,22.768,48.254,22.768z"/>
	<g>
		<path fill="#FFFFFF" d="M34.438,38.521c0.132,0,0.228,0.108,0.191,0.24l-0.084,0.42c-0.035,0.132-0.155,0.24-0.287,0.24h-3.274
			c-0.132,0-0.229-0.108-0.192-0.24l0.084-0.42c0.036-0.132,0.156-0.24,0.288-0.24H34.438z"/>
		<path fill="#FFFFFF" d="M39.671,37.49c0.107,0,0.191,0.048,0.191,0.181l-0.048,3.021c0,0.097,0.132,0.097,0.168,0l1.715-4.341
			c0.061-0.145,0.168-0.181,0.276-0.181h0.252c0.191,0,0.216,0.156,0.168,0.276l-2.303,5.541c-0.048,0.132-0.168,0.18-0.276,0.18
			h-0.42c-0.107,0-0.18-0.06-0.18-0.18l0.061-3.095c0-0.084-0.108-0.084-0.145,0l-1.235,3.095c-0.048,0.132-0.168,0.18-0.275,0.18
			h-0.468c-0.108,0-0.18-0.06-0.18-0.18l0.048-5.541c0-0.12,0.096-0.276,0.287-0.276h0.252c0.108,0,0.181,0.048,0.181,0.181
			l-0.108,4.341c0,0.097,0.132,0.097,0.168,0l1.224-3.021c0.06-0.133,0.155-0.181,0.264-0.181H39.671z"/>
		<path fill="#FFFFFF" d="M45.312,41.58c0.983,0,1.415-0.563,1.716-1.127c0.083-0.156,0.203-0.204,0.312-0.204h0.239
			c0.12,0,0.217,0.072,0.156,0.24c-0.359,1.043-1.308,1.799-2.555,1.799c-1.439,0-2.303-1.02-2.123-2.279
			c0.061-0.479,0.216-1.199,0.349-1.679c0.371-1.26,1.367-2.278,2.806-2.278c1.848,0,2.291,1.319,1.991,2.638l-0.12,0.528
			c-0.036,0.132-0.168,0.239-0.3,0.239H43.98c-0.072,0-0.132,0.049-0.144,0.12C43.572,40.681,44.076,41.58,45.312,41.58z
			 M44.148,38.786h3.238c0.072,0,0.132-0.048,0.144-0.12c0.265-1.224-0.18-1.907-1.379-1.907c-1.067,0-1.835,0.684-2.099,1.907
			C44.04,38.738,44.076,38.786,44.148,38.786z"/>
		<path fill="#FFFFFF" d="M50.292,42.084c-0.06,0.048-0.12,0.084-0.191,0.084h-0.192c-0.132,0-0.203-0.108-0.18-0.24l1.691-7.999
			c0.023-0.132,0.168-0.24,0.3-0.24h0.228c0.132,0,0.204,0.108,0.18,0.24L51.672,36.1c-0.024,0.107,0.048,0.252,0.216,0.252
			c0.239,0,0.539-0.3,1.139-0.3c1.476,0,2.184,1.019,2.003,2.278c-0.06,0.479-0.216,1.199-0.348,1.679
			c-0.371,1.26-1.091,2.279-2.674,2.279c-0.888,0-1.044-0.396-1.392-0.396C50.473,41.893,50.376,42,50.292,42.084z M53.95,40.009
			c0.156-0.491,0.3-1.187,0.348-1.679c0.061-0.636-0.107-1.571-1.271-1.571c-1.067,0-1.606,0.936-1.811,1.571
			c-0.144,0.492-0.288,1.188-0.348,1.679c-0.072,0.636,0.071,1.571,1.14,1.571C53.326,41.58,53.734,40.645,53.95,40.009z"/>
		<path fill="#FFFFFF" d="M57.827,39.529c-0.036-0.036-0.096-0.036-0.107,0.024l-0.492,2.374c-0.036,0.132-0.168,0.24-0.3,0.24H56.7
			c-0.132,0-0.216-0.108-0.18-0.24l1.69-7.999c0.036-0.132,0.168-0.24,0.3-0.24h0.229c0.132,0,0.216,0.108,0.18,0.24l-0.924,4.365
			c-0.012,0.061,0.036,0.072,0.084,0.024l2.747-1.991c0.071-0.06,0.191-0.156,0.371-0.156h0.288c0.216,0,0.3,0.252,0.132,0.372
			l-3.094,2.291c-0.12,0.096-0.133,0.18-0.061,0.288l2.195,2.65c0.119,0.155,0.06,0.396-0.229,0.396h-0.264
			c-0.18,0-0.275-0.12-0.312-0.18L57.827,39.529z"/>
		<path fill="#FFFFFF" d="M64.319,36.891c-0.132,0-0.216-0.107-0.192-0.239l0.048-0.24c0.036-0.132,0.168-0.24,0.3-0.24h2.1
			c0.132,0,0.203,0.108,0.18,0.24l-1.044,4.917c-0.012,0.072,0.024,0.12,0.097,0.12h1.57c0.133,0,0.217,0.108,0.192,0.24
			l-0.048,0.239c-0.036,0.132-0.168,0.24-0.3,0.24h-4.15c-0.132,0-0.216-0.108-0.18-0.24l0.048-0.239
			c0.024-0.132,0.156-0.24,0.288-0.24h1.619c0.072,0,0.132-0.048,0.144-0.12l0.924-4.317c0.012-0.072-0.023-0.12-0.096-0.12H64.319z
			 M67.293,34.517c-0.023,0.107-0.119,0.191-0.228,0.191h-0.624c-0.107,0-0.18-0.084-0.155-0.191l0.132-0.636
			c0.023-0.097,0.132-0.192,0.24-0.192h0.623c0.108,0,0.168,0.096,0.145,0.192L67.293,34.517z"/>
		<path fill="#FFFFFF" d="M71.578,40.333c-0.18,0.84,0.264,1.235,0.876,1.235c0.684,0,1.211-0.527,1.354-1.199
			c0.036-0.132,0.156-0.24,0.288-0.24h0.252c0.132,0,0.216,0.108,0.192,0.24c-0.216,1.079-1.056,1.919-2.111,1.919
			c-1.199,0-1.811-0.863-1.583-1.919l0.708-3.311c0.012-0.072-0.024-0.12-0.097-0.12h-1.331c-0.132,0-0.216-0.107-0.191-0.239
			l0.048-0.229c0.036-0.132,0.168-0.239,0.3-0.239h1.331c0.072,0,0.132-0.048,0.144-0.12l0.396-1.859
			c0.023-0.132,0.155-0.239,0.287-0.239h0.24c0.132,0,0.216,0.107,0.192,0.239l-0.396,1.859c-0.012,0.072,0.024,0.12,0.097,0.12
			h1.99c0.132,0,0.216,0.107,0.18,0.239l-0.048,0.229c-0.023,0.132-0.155,0.239-0.287,0.239h-1.991c-0.072,0-0.132,0.048-0.145,0.12
			L71.578,40.333z"/>
		<path fill="#FFFFFF" d="M34.438,49.869c0.132,0,0.228,0.108,0.191,0.24l-0.084,0.42c-0.035,0.132-0.155,0.24-0.287,0.24h-3.274
			c-0.132,0-0.229-0.108-0.192-0.24l0.084-0.42c0.036-0.132,0.156-0.24,0.288-0.24H34.438z"/>
		<path fill="#FFFFFF" d="M40.966,47.399c0.804,0,1.092,0.707,0.936,1.438l-0.936,4.438c-0.036,0.132-0.168,0.24-0.3,0.24h-0.228
			c-0.132,0-0.216-0.108-0.18-0.24l0.971-4.593c0.084-0.42-0.216-0.576-0.6-0.576c-0.312,0-0.647,0.228-0.72,0.576l-0.971,4.593
			c-0.036,0.132-0.168,0.24-0.3,0.24h-0.229c-0.132,0-0.216-0.108-0.18-0.24l0.972-4.593c0.072-0.349-0.192-0.576-0.576-0.576
			c-0.312,0-0.684,0.228-0.755,0.576L36.9,53.275c-0.036,0.132-0.168,0.24-0.3,0.24h-0.229c-0.132,0-0.216-0.108-0.18-0.24
			l1.163-5.517c0.036-0.132,0.168-0.24,0.301-0.24h0.071c0.072,0,0.108,0.036,0.145,0.084c0.035,0.061,0.048,0.097,0.132,0.097
			c0.132,0,0.275-0.3,0.839-0.3c0.433,0,0.696,0.216,0.804,0.432c0.012,0.036,0.061,0.071,0.108,0.071s0.096-0.023,0.144-0.071
			C40.078,47.65,40.366,47.399,40.966,47.399z"/>
		<path fill="#FFFFFF" d="M48.382,49.678c-0.06,0.479-0.216,1.199-0.348,1.679c-0.372,1.26-1.319,2.279-2.759,2.279
			c-1.438,0-2.267-1.02-2.086-2.279c0.06-0.479,0.216-1.199,0.348-1.679c0.371-1.26,1.319-2.278,2.758-2.278
			C47.734,47.399,48.55,48.418,48.382,49.678z M47.303,51.356c0.144-0.491,0.288-1.187,0.348-1.679
			c0.072-0.636-0.156-1.571-1.355-1.571c-1.271,0-1.822,0.936-2.026,1.571c-0.145,0.492-0.288,1.188-0.348,1.679
			c-0.072,0.636,0.155,1.571,1.354,1.571C46.547,52.928,47.099,51.992,47.303,51.356z"/>
		<path fill="#FFFFFF" d="M54.059,48.334c0.06-0.06,0.035-0.119-0.036-0.119h-3.19c-0.132,0-0.204-0.108-0.18-0.24l0.036-0.216
			c0.023-0.132,0.168-0.24,0.3-0.24h3.957c0.133,0,0.217,0.108,0.181,0.24l-0.072,0.348c-0.048,0.216-0.204,0.36-0.336,0.492
			L50.604,52.7c-0.061,0.06-0.036,0.12,0.035,0.12h3.299c0.132,0,0.204,0.107,0.18,0.239l-0.036,0.216
			c-0.023,0.132-0.168,0.24-0.3,0.24h-4.197c-0.12,0-0.204-0.108-0.168-0.24l0.071-0.3c0.036-0.155,0.061-0.203,0.229-0.371
			L54.059,48.334z"/>
		<path fill="#FFFFFF" d="M60.838,49.869c0.132,0,0.228,0.108,0.191,0.24l-0.084,0.42c-0.035,0.132-0.155,0.24-0.287,0.24h-3.274
			c-0.132,0-0.228-0.108-0.192-0.24l0.084-0.42c0.036-0.132,0.156-0.24,0.288-0.24H60.838z"/>
		<path fill="#FFFFFF" d="M62.868,51.285c0-1.907,1.223-3.874,3.046-3.874c0.66,0,1.079,0.275,1.283,0.552
			c0.061,0.071,0.096,0.155,0.18,0.155c0.049,0,0.084-0.023,0.12-0.096l0.156-0.384c0.036-0.096,0.132-0.12,0.204-0.12h0.252
			c0.132,0,0.216,0.108,0.191,0.24l-1.188,5.517c-0.023,0.132-0.155,0.24-0.287,0.24h-0.181c-0.071,0-0.12-0.012-0.168-0.084
			c-0.071-0.096,0.036-0.396-0.096-0.396c-0.18,0-0.527,0.6-1.559,0.6C63.743,53.636,62.868,52.712,62.868,51.285z M65.902,48.106
			c-1.308,0-2.314,1.331-2.314,3.179c0,0.899,0.551,1.631,1.331,1.631c1.571,0,2.207-2.027,2.207-3.358
			C67.126,48.719,66.658,48.106,65.902,48.106z"/>
		<path fill="#FFFFFF" d="M72.79,47.399c1.259,0,2.171,0.719,1.883,2.087l-0.804,3.789c-0.024,0.132-0.168,0.24-0.3,0.24h-0.228
			c-0.133,0-0.204-0.108-0.181-0.24l0.804-3.789c0.216-1.008-0.372-1.38-1.235-1.38s-1.595,0.36-1.799,1.319l-0.815,3.85
			c-0.024,0.132-0.168,0.24-0.3,0.24h-0.228c-0.133,0-0.204-0.108-0.181-0.24l1.164-5.517c0.023-0.132,0.167-0.24,0.3-0.24h0.191
			c0.072,0,0.108,0.036,0.144,0.084c0.061,0.084,0.108,0.192,0.252,0.192C71.807,47.795,72.01,47.399,72.79,47.399z"/>
		<path fill="#FFFFFF" d="M29.869,62.633c0-1.907,1.223-3.874,3.046-3.874c0.66,0,1.079,0.275,1.283,0.552
			c0.061,0.071,0.096,0.155,0.18,0.155c0.049,0,0.084-0.023,0.12-0.096l0.156-0.384c0.036-0.096,0.132-0.12,0.204-0.12h0.252
			c0.132,0,0.216,0.108,0.191,0.24l-1.188,5.517c-0.023,0.132-0.155,0.24-0.288,0.24h-0.18c-0.071,0-0.12-0.012-0.168-0.084
			c-0.071-0.096,0.036-0.396-0.096-0.396c-0.18,0-0.527,0.6-1.559,0.6C30.744,64.983,29.869,64.06,29.869,62.633z M32.903,59.454
			c-1.308,0-2.314,1.331-2.314,3.179c0,0.899,0.552,1.631,1.331,1.631c1.571,0,2.207-2.027,2.207-3.358
			C34.127,60.066,33.659,59.454,32.903,59.454z"/>
		<path fill="#FFFFFF" d="M39.791,58.747c1.259,0,2.17,0.719,1.883,2.087l-0.804,3.789c-0.024,0.132-0.168,0.24-0.3,0.24h-0.228
			c-0.133,0-0.204-0.108-0.181-0.24l0.804-3.789c0.216-1.008-0.372-1.38-1.235-1.38s-1.595,0.36-1.799,1.319l-0.815,3.85
			c-0.024,0.132-0.168,0.24-0.3,0.24h-0.229c-0.132,0-0.203-0.108-0.18-0.24l1.164-5.517c0.023-0.132,0.168-0.24,0.3-0.24h0.191
			c0.072,0,0.108,0.036,0.144,0.084c0.061,0.084,0.108,0.192,0.252,0.192C38.808,59.143,39.011,58.747,39.791,58.747z"/>
		<path fill="#FFFFFF" d="M44.521,59.586c-0.132,0-0.216-0.107-0.192-0.239l0.048-0.24c0.036-0.132,0.168-0.24,0.3-0.24h2.1
			c0.132,0,0.203,0.108,0.18,0.24l-1.044,4.917c-0.012,0.072,0.024,0.12,0.097,0.12h1.57c0.133,0,0.217,0.108,0.192,0.24
			l-0.048,0.239c-0.036,0.132-0.168,0.24-0.3,0.24h-4.15c-0.132,0-0.216-0.108-0.18-0.24l0.048-0.239
			c0.024-0.132,0.156-0.24,0.288-0.24h1.619c0.072,0,0.132-0.048,0.144-0.12l0.924-4.317c0.012-0.072-0.023-0.12-0.096-0.12H44.521z
			 M47.494,57.212c-0.023,0.107-0.119,0.191-0.228,0.191h-0.624c-0.107,0-0.18-0.084-0.155-0.191l0.132-0.636
			c0.023-0.097,0.132-0.192,0.24-0.192h0.623c0.108,0,0.168,0.096,0.145,0.192L47.494,57.212z"/>
		<path fill="#FFFFFF" d="M54.166,58.747c0.804,0,1.092,0.707,0.936,1.438l-0.936,4.438c-0.036,0.132-0.168,0.24-0.3,0.24h-0.228
			c-0.132,0-0.216-0.108-0.18-0.24l0.971-4.593c0.084-0.42-0.216-0.576-0.6-0.576c-0.312,0-0.647,0.228-0.72,0.576l-0.971,4.593
			c-0.036,0.132-0.168,0.24-0.3,0.24h-0.229c-0.132,0-0.216-0.108-0.18-0.24l0.972-4.593c0.071-0.349-0.192-0.576-0.576-0.576
			c-0.312,0-0.684,0.228-0.755,0.576l-0.972,4.593c-0.036,0.132-0.168,0.24-0.3,0.24h-0.229c-0.132,0-0.216-0.108-0.18-0.24
			l1.164-5.517c0.035-0.132,0.167-0.24,0.3-0.24h0.071c0.072,0,0.108,0.036,0.145,0.084c0.035,0.061,0.048,0.097,0.132,0.097
			c0.132,0,0.275-0.3,0.839-0.3c0.432,0,0.696,0.216,0.804,0.432c0.013,0.036,0.061,0.071,0.108,0.071s0.096-0.023,0.144-0.071
			C53.278,58.998,53.566,58.747,54.166,58.747z"/>
		<path fill="#FFFFFF" d="M56.269,62.633c0-1.907,1.223-3.874,3.046-3.874c0.66,0,1.079,0.275,1.283,0.552
			c0.061,0.071,0.096,0.155,0.18,0.155c0.049,0,0.084-0.023,0.12-0.096l0.156-0.384c0.036-0.096,0.132-0.12,0.204-0.12h0.252
			c0.132,0,0.216,0.108,0.191,0.24l-1.188,5.517c-0.023,0.132-0.155,0.24-0.287,0.24h-0.181c-0.071,0-0.12-0.012-0.168-0.084
			c-0.071-0.096,0.036-0.396-0.096-0.396c-0.18,0-0.527,0.6-1.559,0.6C57.144,64.983,56.269,64.06,56.269,62.633z M59.303,59.454
			c-1.308,0-2.314,1.331-2.314,3.179c0,0.899,0.551,1.631,1.331,1.631c1.571,0,2.207-2.027,2.207-3.358
			C60.526,60.066,60.059,59.454,59.303,59.454z"/>
		<path fill="#FFFFFF" d="M64.979,63.028c-0.18,0.84,0.264,1.235,0.876,1.235c0.684,0,1.211-0.527,1.354-1.199
			c0.036-0.132,0.156-0.24,0.288-0.24h0.252c0.132,0,0.216,0.108,0.192,0.24c-0.216,1.079-1.056,1.919-2.111,1.919
			c-1.199,0-1.811-0.863-1.583-1.919l0.708-3.311c0.012-0.072-0.024-0.12-0.097-0.12h-1.331c-0.132,0-0.216-0.107-0.191-0.239
			l0.048-0.229c0.036-0.132,0.168-0.239,0.3-0.239h1.331c0.072,0,0.132-0.048,0.144-0.12l0.396-1.859
			c0.023-0.132,0.155-0.239,0.287-0.239h0.24c0.132,0,0.216,0.107,0.192,0.239l-0.396,1.859c-0.012,0.072,0.024,0.12,0.097,0.12
			h1.99c0.132,0,0.216,0.107,0.18,0.239l-0.048,0.229c-0.023,0.132-0.155,0.239-0.287,0.239h-1.991c-0.072,0-0.132,0.048-0.145,0.12
			L64.979,63.028z"/>
		<path fill="#FFFFFF" d="M70.919,59.586c-0.132,0-0.216-0.107-0.192-0.239l0.048-0.24c0.036-0.132,0.168-0.24,0.3-0.24h2.1
			c0.132,0,0.203,0.108,0.18,0.24l-1.044,4.917c-0.012,0.072,0.024,0.12,0.097,0.12h1.57c0.133,0,0.217,0.108,0.192,0.24
			l-0.048,0.239c-0.036,0.132-0.168,0.24-0.3,0.24h-4.15c-0.132,0-0.216-0.108-0.18-0.24l0.048-0.239
			c0.024-0.132,0.156-0.24,0.288-0.24h1.619c0.072,0,0.132-0.048,0.144-0.12l0.924-4.317c0.012-0.072-0.023-0.12-0.096-0.12H70.919z
			 M73.893,57.212c-0.023,0.107-0.119,0.191-0.228,0.191h-0.624c-0.107,0-0.18-0.084-0.155-0.191l0.132-0.636
			c0.023-0.097,0.132-0.192,0.24-0.192h0.623c0.108,0,0.168,0.096,0.145,0.192L73.893,57.212z"/>
	</g>
</g>
</svg>
