<?xml version="1.0" encoding="utf-8"?>
<!-- Generator: Adobe Illustrator 16.2.0, SVG Export Plug-In . SVG Version: 6.00 Build 0)  -->
<!DOCTYPE svg PUBLIC "-//W3C//DTD SVG 1.1//EN" "http://www.w3.org/Graphics/SVG/1.1/DTD/svg11.dtd">
<svg version="1.1" id="Layer_1" xmlns="http://www.w3.org/2000/svg" xmlns:xlink="http://www.w3.org/1999/xlink" x="0px" y="0px"
	 width="100px" height="100px" viewBox="0 0 100 100" enable-background="new 0 0 100 100" xml:space="preserve">
<g>
	<g>
		<path fill="#FFFFFF" d="M47.398,54.567v-1.115c3.106-2.351,4.331-3.382,4.331-4.546c0-0.839-0.733-1.211-1.463-1.211
			c-0.936,0-1.644,0.372-2.16,0.947l-0.814-0.911c0.707-0.864,1.834-1.283,2.962-1.283c1.548,0,2.89,0.863,2.89,2.458
			c0,1.487-1.355,2.807-3.49,4.426h3.539v1.235H47.398z"/>
	</g>
	<path fill="#FFFFFF" d="M50.415,59.035c-4.46,0-8.089-3.63-8.089-8.091c0-4.46,3.629-8.089,8.089-8.089
		c4.461,0,8.091,3.629,8.091,8.089C58.506,55.405,54.876,59.035,50.415,59.035z M50.415,44.272c-3.679,0-6.672,2.993-6.672,6.672
		c0,3.68,2.993,6.673,6.672,6.673c3.68,0,6.673-2.993,6.673-6.673C57.088,47.265,54.095,44.272,50.415,44.272z"/>
</g>
<g>
	<path fill="#FFFFFF" d="M21.94,47.253c1.211,0,3.073,0.024,4.562-1.537c1.598-1.676,1.766-4.119,1.766-5.786
		c0-1.647-0.174-3.19-0.174-4.878c0-2.566,0.366-6.398,3.363-9.131c3.271-2.981,7.649-2.727,11.308-2.727h2.059v3.882h-2.354
		c-2.979,0-5.056-0.278-6.89,0.866c-2.624,1.639-2.731,4.956-2.731,6.34c0,1.632,0.201,3.125,0.201,4.79
		c0,1.622-0.182,3.637-1.083,5.481c-1.007,2.058-2.741,3.677-4.85,4.581c2.586,0.899,5.758,3.493,5.758,10.617
		c0,2.106-0.216,3.895-0.216,5.698c0,2.347,0.346,5.33,2.782,7.009c1.865,1.285,3.991,1.146,6.793,1.146h2.53v3.823h-2.471
		c-4.211,0-7.702,0.206-10.646-2.053c-3.591-2.756-3.8-7.417-3.8-9.892c0-2.656,0.256-4.688,0.256-6.813
		c0-2.943-0.46-4.928-1.798-6.238c-1.398-1.37-3.153-1.356-4.307-1.356h-1.412v-3.823H21.94z"/>
	<path fill="#FFFFFF" d="M80.242,51.076H78.83c-1.152,0-2.908-0.014-4.307,1.356c-1.338,1.311-1.797,3.295-1.797,6.238
		c0,2.125,0.256,4.157,0.256,6.813c0,2.475-0.209,7.136-3.799,9.892c-2.945,2.259-6.436,2.053-10.646,2.053h-2.471v-3.823h2.529
		c2.803,0,4.928,0.139,6.793-1.146c2.438-1.679,2.783-4.662,2.783-7.009c0-1.804-0.217-3.592-0.217-5.698
		c0-7.124,3.172-9.718,5.758-10.617c-2.107-0.904-3.842-2.523-4.85-4.581c-0.9-1.845-1.082-3.859-1.082-5.481
		c0-1.665,0.201-3.158,0.201-4.79c0-1.384-0.107-4.701-2.732-6.34c-1.834-1.145-3.91-0.866-6.889-0.866h-2.354v-3.882h2.059
		c3.658,0,8.037-0.255,11.307,2.727c2.998,2.732,3.363,6.564,3.363,9.131c0,1.688-0.174,3.23-0.174,4.878
		c0,1.667,0.17,4.11,1.766,5.786c1.488,1.562,3.352,1.537,4.562,1.537h1.352V51.076z"/>
</g>
</svg>
