<?xml version="1.0" encoding="utf-8"?>
<!-- Generator: Adobe Illustrator 16.2.0, SVG Export Plug-In . SVG Version: 6.00 Build 0)  -->
<!DOCTYPE svg PUBLIC "-//W3C//DTD SVG 1.1//EN" "http://www.w3.org/Graphics/SVG/1.1/DTD/svg11.dtd">
<svg version="1.1" id="Layer_1" xmlns="http://www.w3.org/2000/svg" xmlns:xlink="http://www.w3.org/1999/xlink" x="0px" y="0px"
	 width="100px" height="100px" viewBox="0 0 100 100" enable-background="new 0 0 100 100" xml:space="preserve">
<g>
	<path fill="#FFFFFF" d="M37.424,51.362C37.424,51.362,37.424,51.362,37.424,51.362c-3.768,0-7.31-1.467-9.973-4.13
		c-4.049-4.049-5.247-10.085-3.054-15.378l0.812-1.959l9.469,9.47c1.295,1.295,3.556,1.297,4.851,0
		c0.648-0.648,1.005-1.51,1.005-2.426c0-0.916-0.357-1.777-1.005-2.425l-9.469-9.47l1.96-0.812c1.72-0.712,3.539-1.073,5.407-1.073
		c3.767,0,7.307,1.466,9.969,4.128c5.498,5.498,5.498,14.444,0,19.943C44.732,49.895,41.19,51.362,37.424,51.362z M26.37,35.063
		c-0.73,3.649,0.383,7.461,3.086,10.164c2.128,2.128,4.958,3.3,7.968,3.3c0,0,0,0,0,0c3.01,0,5.839-1.172,7.968-3.302
		c4.393-4.394,4.393-11.542,0-15.935c-2.126-2.127-4.955-3.298-7.964-3.298c-0.743,0-1.477,0.071-2.196,0.213l6.302,6.302
		c1.184,1.183,1.835,2.756,1.835,4.43c0,1.672-0.652,3.246-1.835,4.429s-2.756,1.835-4.429,1.835c-1.673,0-3.247-0.651-4.431-1.835
		L26.37,35.063z"/>
	<path fill="#FFFFFF" d="M69.665,77.167c-1.965,0-3.93-0.748-5.425-2.243L39.794,50.478l2.005-2.004L66.244,72.92
		c1.888,1.886,4.956,1.884,6.842,0c1.885-1.886,1.885-4.955,0-6.841L48.639,41.633l2.004-2.005L75.09,64.075
		c2.99,2.991,2.99,7.857,0,10.849C73.595,76.419,71.63,77.167,69.665,77.167z"/>
	
		<rect x="41.121" y="59.558" transform="matrix(0.7071 0.7071 -0.7071 0.7071 60.3152 -25.0806)" fill="#FFFFFF" width="38.623" height="1.417"/>
</g>
</svg>
